<svg width="48" height="48" viewBox="0 0 48 48" fill="none" xmlns="http://www.w3.org/2000/svg">
<path d="M48 24C48 37.2547 37.2552 48 24 48C10.745 48 0 37.2547 0 24C0 10.7448 10.745 0 24 0C37.2552 0 48 10.7448 48 24Z" fill="#171A1D"/>
<path d="M20.2736 24.0973L24.1184 20.2525L27.9631 24.0973L24.1184 27.9421L20.2736 24.0973ZM32.5078 24.0974L36.3526 20.2526L40.1973 24.0974L36.3526 27.9421L32.5078 24.0974ZM8.03947 24.0972L11.8842 20.2525L15.729 24.0972L11.8842 27.942L8.03947 24.0972ZM14.1099 18.0276L24.0977 8.0397L27.9425 11.8845L17.9546 21.8723L14.1099 18.0276Z" fill="#F5B638"/>
<path d="M30.2831 21.8721L20.2953 11.8843L24.1401 8.03951L34.128 18.0274L30.2831 21.8721ZM17.9551 26.3732L27.9429 36.3611L24.0982 40.2059L14.1103 30.218L17.9551 26.3732Z" fill="#F5B638"/>
<path d="M34.1288 30.2185L24.1409 40.2064L20.2961 36.3616L30.284 26.3737L34.1288 30.2185Z" fill="#F5B638"/>
</svg>
