<svg width="20" height="20" viewBox="0 0 20 20" fill="none" xmlns="http://www.w3.org/2000/svg">
  <path d="M8.44717 10.0403L10.0492 8.43829L11.6511 10.0403L10.0492 11.6423L8.44717 10.0403ZM13.5448 10.0403L15.1467 8.43832L16.7487 10.0403L15.1467 11.6423L13.5448 10.0403ZM3.34961 10.0403L4.95159 8.43827L6.55358 10.0403L4.95159 11.6422L3.34961 10.0403ZM5.87894 7.51122L10.0406 3.34961L11.6425 4.95159L7.48093 9.1132L5.87894 7.51122Z" fill="white"/>
  <path d="M12.6176 9.11318L8.45598 4.95159L10.058 3.34961L14.2196 7.51122L12.6176 9.11318ZM7.48089 10.9887L11.6425 15.1503L10.0405 16.7523L5.87891 12.5907L7.48089 10.9887Z" fill="white"/>
  <path d="M14.2201 12.5908L10.0585 16.7524L8.45654 15.1504L12.6182 10.9888L14.2201 12.5908Z" fill="white"/>
</svg>
