<svg width="32" height="32" viewBox="0 0 32 32" fill="none" xmlns="http://www.w3.org/2000/svg">
<path d="M13.516 16.0649L16.0791 13.5018L18.6423 16.0649L16.0791 18.6281L13.516 16.0649ZM21.6721 16.065L24.2353 13.5018L26.7984 16.065L24.2353 18.6282L21.6721 16.065ZM5.35986 16.0649L7.92304 13.5017L10.4862 16.0649L7.92304 18.6281L5.35986 16.0649ZM9.40679 12.0184L16.0654 5.35987L18.6285 7.92305L11.97 14.5816L9.40679 12.0184Z" fill="#999999"/>
<path d="M20.1891 14.5814L13.5306 7.92285L16.0938 5.35967L22.7523 12.0182L20.1891 14.5814ZM11.9704 17.5822L18.629 24.2407L16.0658 26.8039L9.40723 20.1453L11.9704 17.5822Z" fill="#999999"/>
<path d="M22.7525 20.1457L16.0939 26.8042L13.5308 24.2411L20.1893 17.5825L22.7525 20.1457Z" fill="#999999"/>
</svg>
