<svg width="21" height="20" viewBox="0 0 21 20" fill="none" xmlns="http://www.w3.org/2000/svg">
  <path d="M11.0322 3.34961V6.37262L13.6659 4.86336L11.0322 3.34961Z" fill="white"/>
  <path opacity="0.9" d="M13.665 4.86328V7.88629L16.2987 6.37277L13.665 4.86328Z" fill="white"/>
  <path opacity="0.8" d="M11.0322 6.37207V9.39486L13.6659 7.8856L11.0322 6.37207Z" fill="white"/>
  <path opacity="0.8" d="M13.665 7.88623V10.909L16.2987 9.39549L13.665 7.88623Z" fill="white"/>
  <path opacity="0.8" d="M11.0322 9.39502V12.4178L13.6659 10.9085L11.0322 9.39502Z" fill="white"/>
  <path d="M13.665 10.9087V13.9315L16.2987 12.418L13.665 10.9087Z" fill="white"/>
  <path opacity="0.4" d="M4.22461 6.271V9.29378L6.85824 7.78026L4.22461 6.271Z" fill="white"/>
  <path opacity="0.2" d="M7.54785 7.39404V10.4168L10.177 8.90757L7.54785 7.39404Z" fill="white"/>
  <path opacity="0.3" d="M5.5957 9.30762V12.3304L8.22934 10.8169L5.5957 9.30762Z" fill="white"/>
  <path opacity="0.9" d="M7.33105 11.5874V14.6102L9.96018 13.0967L7.33105 11.5874Z" fill="white"/>
  <path opacity="0.7" d="M11.0117 12.8887V15.911L13.6408 14.3975L11.0117 12.8887Z" fill="white"/>
  <path opacity="0.9" d="M7.98633 5.90234V8.92513L10.6155 7.41587L7.98633 5.90234Z" fill="white"/>
  <path opacity="0.8" d="M11.0321 3.34961V6.37262L8.39844 4.86336L11.0321 3.34961Z" fill="white"/>
  <path opacity="0.6" d="M7.98617 4.63379V7.6559L5.35254 6.14305L7.98617 4.63379Z" fill="white"/>
  <path opacity="0.6" d="M10.619 6.13037V9.15316L7.98535 7.63963L10.619 6.13037Z" fill="white"/>
  <path opacity="0.95" d="M7.53598 7.39404V10.4168L4.90234 8.90757L7.53598 7.39404Z" fill="white"/>
  <path opacity="0.6" d="M11.0315 9.39502V12.4178L8.40234 10.9085L11.0315 9.39502Z" fill="white"/>
  <path opacity="0.55" d="M5.59532 10.0996V13.1224L2.96191 11.6086L5.59532 10.0996Z" fill="white"/>
  <path d="M16.2987 6.37207V9.39486L13.665 7.8856L16.2987 6.37207Z" fill="white"/>
  <path opacity="0.95" d="M13.6659 7.88623V10.909L11.0322 9.39549L13.6659 7.88623Z" fill="white"/>
  <path opacity="0.9" d="M16.2987 9.39502V12.4178L13.665 10.9085L16.2987 9.39502Z" fill="white"/>
  <path opacity="0.7" d="M13.6659 10.9087V13.9315L11.0322 12.418L13.6659 10.9087Z" fill="white"/>
  <path opacity="0.4" d="M10.4491 12.167V15.1898L7.81543 13.6805L10.4491 12.167Z" fill="white"/>
  <path d="M13.6659 4.86328V7.88629L11.0322 6.37277L13.6659 4.86328Z" fill="white"/>
</svg>
