<svg width="32" height="32" viewBox="0 0 32 32" fill="none" xmlns="http://www.w3.org/2000/svg">
<path d="M17.0972 5.35967V10.1965L21.311 7.78168L17.0972 5.35967Z" fill="#999999"/>
<path opacity="0.9" d="M21.3105 7.78188V12.6187L25.5244 10.1971L21.3105 7.78188Z" fill="#999999"/>
<path opacity="0.8" d="M17.0972 10.1959V15.0324L21.311 12.6176L17.0972 10.1959Z" fill="#999999"/>
<path opacity="0.8" d="M21.3105 12.6181V17.4546L25.5244 15.0329L21.3105 12.6181Z" fill="#999999"/>
<path opacity="0.8" d="M17.0972 15.032V19.8685L21.311 17.4537L17.0972 15.032Z" fill="#999999"/>
<path d="M21.3105 17.4543V22.2907L25.5244 19.8691L21.3105 17.4543Z" fill="#999999"/>
<path opacity="0.4" d="M6.20557 10.034V14.8705L10.4194 12.4488L6.20557 10.034Z" fill="#999999"/>
<path opacity="0.2" d="M11.5229 11.8307V16.6672L15.7296 14.2524L11.5229 11.8307Z" fill="#999999"/>
<path opacity="0.3" d="M8.39844 14.8922V19.7287L12.6123 17.307L8.39844 14.8922Z" fill="#999999"/>
<path opacity="0.9" d="M11.1763 18.5405V23.377L15.3829 20.9553L11.1763 18.5405Z" fill="#999999"/>
<path opacity="0.7" d="M17.064 20.6226V25.4583L21.2706 23.0367L17.064 20.6226Z" fill="#999999"/>
<path opacity="0.9" d="M12.2236 9.44418V14.2806L16.4302 11.8658L12.2236 9.44418Z" fill="#999999"/>
<path opacity="0.8" d="M17.0976 5.35967V10.1965L12.8838 7.78168L17.0976 5.35967Z" fill="#999999"/>
<path opacity="0.6" d="M12.2241 7.41434V12.2497L8.01025 9.82915L12.2241 7.41434Z" fill="#999999"/>
<path opacity="0.6" d="M16.4365 9.80906V14.6455L12.2227 12.2239L16.4365 9.80906Z" fill="#999999"/>
<path opacity="0.95" d="M11.5029 11.8307V16.6672L7.28906 14.2524L11.5029 11.8307Z" fill="#999999"/>
<path opacity="0.6" d="M17.0972 15.032V19.8685L12.8906 17.4537L17.0972 15.032Z" fill="#999999"/>
<path opacity="0.55" d="M8.39851 16.1595V20.9959L4.18506 18.5739L8.39851 16.1595Z" fill="#999999"/>
<path d="M25.5244 10.1959V15.0324L21.3105 12.6176L25.5244 10.1959Z" fill="#999999"/>
<path opacity="0.95" d="M21.311 12.6181V17.4546L17.0972 15.0329L21.311 12.6181Z" fill="#999999"/>
<path opacity="0.9" d="M25.5244 15.032V19.8685L21.3105 17.4537L25.5244 15.032Z" fill="#999999"/>
<path opacity="0.7" d="M21.311 17.4543V22.2907L17.0972 19.8691L21.311 17.4543Z" fill="#999999"/>
<path opacity="0.4" d="M16.1645 19.4677V24.3042L11.9507 21.8894L16.1645 19.4677Z" fill="#999999"/>
<path d="M21.311 7.78188V12.6187L17.0972 10.1971L21.311 7.78188Z" fill="#999999"/>
</svg>
