<svg width="21" height="20" viewBox="0 0 21 20" fill="none" xmlns="http://www.w3.org/2000/svg">
<path d="M11.0317 3.34961V6.37262L13.6654 4.86336L11.0317 3.34961Z" fill="#0CDBD5"/>
<path opacity="0.9" d="M13.665 4.86328V7.88629L16.2987 6.37277L13.665 4.86328Z" fill="#0CDBD5"/>
<path opacity="0.8" d="M11.0317 6.37207V9.39486L13.6654 7.8856L11.0317 6.37207Z" fill="#0CDBD5"/>
<path opacity="0.8" d="M13.665 7.88623V10.909L16.2987 9.39549L13.665 7.88623Z" fill="#0CDBD5"/>
<path opacity="0.8" d="M11.0317 9.39502V12.4178L13.6654 10.9085L11.0317 9.39502Z" fill="#0CDBD5"/>
<path d="M13.665 10.9087V13.9315L16.2987 12.418L13.665 10.9087Z" fill="#0CDBD5"/>
<path opacity="0.4" d="M4.22412 6.271V9.29378L6.85775 7.78026L4.22412 6.271Z" fill="#0CDBD5"/>
<path opacity="0.2" d="M7.54736 7.39404V10.4168L10.1765 8.90757L7.54736 7.39404Z" fill="#0CDBD5"/>
<path opacity="0.3" d="M5.59473 9.30713V12.3299L8.22836 10.8164L5.59473 9.30713Z" fill="#0CDBD5"/>
<path opacity="0.9" d="M7.33105 11.5879V14.6107L9.96018 13.0971L7.33105 11.5879Z" fill="#0CDBD5"/>
<path opacity="0.7" d="M11.0107 12.8892V15.9115L13.6399 14.398L11.0107 12.8892Z" fill="#0CDBD5"/>
<path opacity="0.9" d="M7.98584 5.90234V8.92513L10.615 7.41587L7.98584 5.90234Z" fill="#0CDBD5"/>
<path opacity="0.8" d="M11.0316 3.34961V6.37262L8.39795 4.86336L11.0316 3.34961Z" fill="#0CDBD5"/>
<path opacity="0.6" d="M7.98568 4.63379V7.6559L5.35205 6.14305L7.98568 4.63379Z" fill="#0CDBD5"/>
<path opacity="0.6" d="M10.6185 6.13037V9.15316L7.98486 7.63963L10.6185 6.13037Z" fill="#0CDBD5"/>
<path opacity="0.95" d="M7.535 7.39404V10.4168L4.90137 8.90757L7.535 7.39404Z" fill="#0CDBD5"/>
<path opacity="0.6" d="M11.0315 9.39502V12.4178L8.40234 10.9085L11.0315 9.39502Z" fill="#0CDBD5"/>
<path opacity="0.55" d="M5.59483 10.0996V13.1224L2.96143 11.6086L5.59483 10.0996Z" fill="#0CDBD5"/>
<path d="M16.2987 6.37207V9.39486L13.665 7.8856L16.2987 6.37207Z" fill="#0CDBD5"/>
<path opacity="0.95" d="M13.6654 7.88623V10.909L11.0317 9.39549L13.6654 7.88623Z" fill="#0CDBD5"/>
<path opacity="0.9" d="M16.2987 9.39502V12.4178L13.665 10.9085L16.2987 9.39502Z" fill="#0CDBD5"/>
<path opacity="0.7" d="M13.6654 10.9087V13.9315L11.0317 12.418L13.6654 10.9087Z" fill="#0CDBD5"/>
<path opacity="0.4" d="M10.4486 12.167V15.1898L7.81494 13.6805L10.4486 12.167Z" fill="#0CDBD5"/>
<path d="M13.6654 4.86328V7.88629L11.0317 6.37277L13.6654 4.86328Z" fill="#0CDBD5"/>
</svg>
