<svg width="32" height="32" viewBox="0 0 32 32" fill="none" xmlns="http://www.w3.org/2000/svg">
  <path d="M17.0973 5.35962V10.1964L21.3111 7.78162L17.0973 5.35962Z" fill="#999999"/>
  <path opacity="0.9" d="M21.3108 7.78174V12.6186L25.5246 10.1969L21.3108 7.78174Z" fill="#999999"/>
  <path opacity="0.8" d="M17.0973 10.1958V15.0323L21.3111 12.6174L17.0973 10.1958Z" fill="#999999"/>
  <path opacity="0.8" d="M21.3108 12.6182V17.4546L25.5246 15.033L21.3108 12.6182Z" fill="#999999"/>
  <path opacity="0.8" d="M17.0973 15.032V19.8684L21.3111 17.4536L17.0973 15.032Z" fill="#999999"/>
  <path d="M21.3108 17.4541V22.2906L25.5246 19.8689L21.3108 17.4541Z" fill="#999999"/>
  <path opacity="0.4" d="M6.20557 10.0339V14.8704L10.4194 12.4488L6.20557 10.0339Z" fill="#999999"/>
  <path opacity="0.2" d="M11.5231 11.8306V16.667L15.7297 14.2522L11.5231 11.8306Z" fill="#999999"/>
  <path opacity="0.3" d="M8.39868 14.8921V19.7285L12.6125 17.3069L8.39868 14.8921Z" fill="#999999"/>
  <path opacity="0.9" d="M11.1763 18.5405V23.377L15.3829 20.9553L11.1763 18.5405Z" fill="#999999"/>
  <path opacity="0.7" d="M17.0642 20.6226V25.4583L21.2708 23.0367L17.0642 20.6226Z" fill="#999999"/>
  <path opacity="0.9" d="M12.224 9.44409V14.2805L16.4306 11.8657L12.224 9.44409Z" fill="#999999"/>
  <path opacity="0.8" d="M17.0976 5.35962V10.1964L12.8838 7.78162L17.0976 5.35962Z" fill="#999999"/>
  <path opacity="0.6" d="M12.2243 7.41431V12.2497L8.0105 9.82912L12.2243 7.41431Z" fill="#999999"/>
  <path opacity="0.6" d="M16.4365 9.80908V14.6455L12.2227 12.2239L16.4365 9.80908Z" fill="#999999"/>
  <path opacity="0.95" d="M11.503 11.8306V16.667L7.28918 14.2522L11.503 11.8306Z" fill="#999999"/>
  <path opacity="0.6" d="M17.0971 15.032V19.8684L12.8905 17.4536L17.0971 15.032Z" fill="#999999"/>
  <path opacity="0.55" d="M8.39863 16.1594V20.9959L4.18518 18.5739L8.39863 16.1594Z" fill="#999999"/>
  <path d="M25.5246 10.1958V15.0323L21.3108 12.6174L25.5246 10.1958Z" fill="#999999"/>
  <path opacity="0.95" d="M21.3111 12.6182V17.4546L17.0973 15.033L21.3111 12.6182Z" fill="#999999"/>
  <path opacity="0.9" d="M25.5246 15.032V19.8684L21.3108 17.4536L25.5246 15.032Z" fill="#999999"/>
  <path opacity="0.7" d="M21.3111 17.4541V22.2906L17.0973 19.8689L21.3111 17.4541Z" fill="#999999"/>
  <path opacity="0.4" d="M16.1649 19.4678V24.3042L11.951 21.8894L16.1649 19.4678Z" fill="#999999"/>
  <path d="M21.3111 7.78174V12.6186L17.0973 10.1969L21.3111 7.78174Z" fill="#999999"/>
</svg>
