<svg width="24" height="21" viewBox="0 0 24 21" fill="none" xmlns="http://www.w3.org/2000/svg">
<path d="M16.9115 6.98134C16.5374 6.76647 16.0564 6.76647 15.6288 6.98134L12.6357 8.75408L10.6047 9.88219L7.66504 11.6549C7.2909 11.8698 6.80987 11.8698 6.38229 11.6549L4.08402 10.2582C3.70989 10.0434 3.44265 9.6136 3.44265 9.13012V6.44415C3.44265 6.01439 3.65644 5.58464 4.08402 5.31604L6.38229 3.97306C6.75642 3.75818 7.23745 3.75818 7.66504 3.97306L9.9633 5.36976C10.3374 5.58464 10.6047 6.01439 10.6047 6.49787V8.27061L12.6357 7.08878V5.26232C12.6357 4.83257 12.4219 4.40281 11.9943 4.13421L7.71849 1.6094C7.34435 1.39452 6.86332 1.39452 6.43573 1.6094L2.053 4.18793C1.62541 4.40281 1.41162 4.83257 1.41162 5.26232V10.3119C1.41162 10.7417 1.62541 11.1715 2.053 11.4401L6.38229 13.9649C6.75642 14.1797 7.23745 14.1797 7.66504 13.9649L10.6047 12.2458L12.6357 11.064L15.5753 9.345C15.9495 9.13012 16.4305 9.13012 16.8581 9.345L19.1564 10.688C19.5305 10.9029 19.7977 11.3326 19.7977 11.8161V14.5021C19.7977 14.9318 19.5839 15.3616 19.1564 15.6302L16.9115 16.9732C16.5374 17.188 16.0564 17.188 15.6288 16.9732L13.3305 15.6302C12.9564 15.4153 12.6892 14.9855 12.6892 14.5021V12.783L10.6581 13.9649V15.7376C10.6581 16.1674 10.8719 16.5971 11.2995 16.8657L15.6288 19.3905C16.0029 19.6054 16.484 19.6054 16.9115 19.3905L21.2408 16.8657C21.615 16.6508 21.8822 16.2211 21.8822 15.7376V10.6343C21.8822 10.2045 21.6684 9.77475 21.2408 9.50616L16.9115 6.98134Z" fill="#8247E5"/>
</svg>
