<svg width="49" height="49" viewBox="0 0 49 49" fill="none" xmlns="http://www.w3.org/2000/svg">
<path d="M48.2368 24.1184C48.2368 37.4385 37.439 48.2368 24.1184 48.2368C10.798 48.2368 0 37.4385 0 24.1184C0 10.7978 10.798 0 24.1184 0C37.439 0 48.2368 10.7978 48.2368 24.1184Z" fill="#8247E5"/>
<path d="M30.9582 18.6409C30.4282 18.3442 29.7467 18.3442 29.141 18.6409L24.9008 21.089L22.0235 22.6469L17.859 25.0949C17.329 25.3917 16.6475 25.3917 16.0418 25.0949L12.7859 23.1662C12.2559 22.8694 11.8773 22.2759 11.8773 21.6083V17.8991C11.8773 17.3056 12.1802 16.7122 12.7859 16.3412L16.0418 14.4866C16.5718 14.1899 17.2533 14.1899 17.859 14.4866L21.1149 16.4154C21.6449 16.7122 22.0235 17.3056 22.0235 17.9733V20.4214L24.9008 18.7893V16.267C24.9008 15.6736 24.5979 15.0801 23.9922 14.7092L17.9347 11.2225C17.4047 10.9258 16.7232 10.9258 16.1175 11.2225L9.90862 14.7834C9.30287 15.0801 9 15.6736 9 16.267V23.2403C9 23.8338 9.30287 24.4273 9.90862 24.7982L16.0418 28.2849C16.5718 28.5816 17.2533 28.5816 17.859 28.2849L22.0235 25.911L24.9008 24.2789L29.0653 21.905C29.5953 21.6083 30.2768 21.6083 30.8825 21.905L34.1384 23.7596C34.6684 24.0564 35.047 24.6498 35.047 25.3175V29.0267C35.047 29.6202 34.7441 30.2136 34.1384 30.5846L30.9582 32.4392C30.4282 32.7359 29.7467 32.7359 29.141 32.4392L25.8851 30.5846C25.3551 30.2878 24.9765 29.6943 24.9765 29.0267V26.6528L22.0992 28.2849V30.7329C22.0992 31.3264 22.4021 31.9199 23.0078 32.2908L29.141 35.7774C29.671 36.0742 30.3525 36.0742 30.9582 35.7774L37.0914 32.2908C37.6214 31.9941 38 31.4006 38 30.7329V23.6854C38 23.092 37.6971 22.4985 37.0914 22.1276L30.9582 18.6409Z" fill="white"/>
</svg>
