<svg width="32" height="32" viewBox="0 0 32 32" fill="none" xmlns="http://www.w3.org/2000/svg">
<path d="M20.9115 11.9814C20.5374 11.7665 20.0564 11.7665 19.6288 11.9814L16.6357 13.7541L14.6047 14.8822L11.665 16.6549C11.2909 16.8698 10.8099 16.8698 10.3823 16.6549L8.08402 15.2582C7.70989 15.0434 7.44265 14.6136 7.44265 14.1301V11.4442C7.44265 11.0144 7.65644 10.5846 8.08402 10.316L10.3823 8.97306C10.7564 8.75818 11.2375 8.75818 11.665 8.97306L13.9633 10.3698C14.3374 10.5846 14.6047 11.0144 14.6047 11.4979V13.2706L16.6357 12.0888V10.2623C16.6357 9.83257 16.4219 9.40282 15.9943 9.13422L11.7185 6.60941C11.3444 6.39453 10.8633 6.39453 10.4357 6.60941L6.053 9.18794C5.62541 9.40282 5.41162 9.83257 5.41162 10.2623V15.312C5.41162 15.7417 5.62541 16.1715 6.053 16.4401L10.3823 18.9649C10.7564 19.1798 11.2375 19.1798 11.665 18.9649L14.6047 17.2459L16.6357 16.064L19.5753 14.345C19.9495 14.1301 20.4305 14.1301 20.8581 14.345L23.1564 15.688C23.5305 15.9029 23.7977 16.3326 23.7977 16.8161V19.5021C23.7977 19.9318 23.5839 20.3616 23.1564 20.6302L20.9115 21.9732C20.5374 22.188 20.0564 22.188 19.6288 21.9732L17.3305 20.6302C16.9564 20.4153 16.6892 19.9855 16.6892 19.5021V17.783L14.6581 18.9649V20.7376C14.6581 21.1674 14.8719 21.5971 15.2995 21.8657L19.6288 24.3905C20.0029 24.6054 20.484 24.6054 20.9115 24.3905L25.2408 21.8657C25.615 21.6508 25.8822 21.2211 25.8822 20.7376V15.6343C25.8822 15.2045 25.6684 14.7748 25.2408 14.5062L20.9115 11.9814Z" fill="#999999"/>
</svg>
