<svg width="20" height="20" viewBox="0 0 20 20" fill="none" xmlns="http://www.w3.org/2000/svg">
  <g opacity="0.8">
    <path d="M13.0698 7.48846C12.8359 7.35416 12.5353 7.35416 12.2681 7.48846L10.3974 8.59642L9.12799 9.30149L7.29071 10.4095C7.05688 10.5438 6.75623 10.5438 6.48899 10.4095L5.05257 9.53651C4.81874 9.40222 4.65171 9.13362 4.65171 8.83145V7.15272C4.65171 6.88412 4.78533 6.61552 5.05257 6.44765L6.48899 5.60828C6.72283 5.47398 7.02347 5.47398 7.29071 5.60828L8.72713 6.48122C8.96096 6.61552 9.12799 6.88412 9.12799 7.18629V8.29425L10.3974 7.55561V6.41407C10.3974 6.14548 10.2638 5.87688 9.99652 5.70901L7.32412 4.131C7.09028 3.9967 6.78963 3.9967 6.52239 4.131L3.78318 5.74258C3.51594 5.87688 3.38232 6.14548 3.38232 6.41407V9.57009C3.38232 9.83869 3.51594 10.1073 3.78318 10.2752L6.48899 11.8532C6.72283 11.9875 7.02347 11.9875 7.29071 11.8532L9.12799 10.7788L10.3974 10.0401L12.2347 8.96575C12.4685 8.83145 12.7691 8.83145 13.0364 8.96575L14.4728 9.80511C14.7066 9.93941 14.8736 10.208 14.8736 10.5102V12.1889C14.8736 12.4575 14.74 12.7261 14.4728 12.894L13.0698 13.7333C12.8359 13.8676 12.5353 13.8676 12.2681 13.7333L10.8316 12.894C10.5978 12.7597 10.4308 12.4911 10.4308 12.1889V11.1145L9.16139 11.8532V12.9611C9.16139 13.2297 9.29501 13.4983 9.56225 13.6662L12.2681 15.2442C12.5019 15.3785 12.8025 15.3785 13.0698 15.2442L15.7756 13.6662C16.0094 13.5319 16.1764 13.2633 16.1764 12.9611V9.77154C16.1764 9.50294 16.0428 9.23434 15.7756 9.06647L13.0698 7.48846Z" fill="#999999"/>
  </g>
</svg>
