<svg width="24" height="24" viewBox="0 0 24 24" fill="none" xmlns="http://www.w3.org/2000/svg">
<path fill-rule="evenodd" clip-rule="evenodd" d="M12 20C16.4183 20 20 16.4183 20 12C20 7.58172 16.4183 4 12 4C7.58172 4 4 7.58172 4 12C4 16.4183 7.58172 20 12 20ZM12 22C17.5228 22 22 17.5228 22 12C22 6.47715 17.5228 2 12 2C6.47715 2 2 6.47715 2 12C2 17.5228 6.47715 22 12 22Z" fill="#33FF99"/>
<path d="M10.6961 13.7673V11.4363C11.4993 11.4058 12.0991 11.2738 12.4956 11.0402C12.9023 10.7964 13.1057 10.3901 13.1057 9.82133V9.60803C13.1057 9.22207 12.9887 8.92752 12.7549 8.72438C12.5312 8.52124 12.2364 8.41967 11.8704 8.41967C11.4739 8.41967 11.1434 8.54155 10.8791 8.78532C10.6249 9.02909 10.4521 9.33887 10.3606 9.71468L8.5 8.93767C8.5915 8.63296 8.72367 8.33841 8.89651 8.05402C9.06935 7.75946 9.29303 7.50046 9.56754 7.27701C9.85221 7.0434 10.1877 6.85549 10.5741 6.7133C10.9706 6.5711 11.4281 6.5 11.9466 6.5C12.4753 6.5 12.9582 6.57618 13.3954 6.72853C13.8326 6.88089 14.2088 7.09418 14.524 7.36842C14.8391 7.64266 15.0781 7.97276 15.2407 8.35873C15.4136 8.74469 15.5 9.17128 15.5 9.6385C15.5 10.0651 15.4288 10.4511 15.2865 10.7964C15.1442 11.1417 14.951 11.4464 14.707 11.7105C14.463 11.9644 14.1783 12.1727 13.8529 12.3352C13.5276 12.4977 13.187 12.6094 12.8312 12.6704V13.7673H10.6961ZM11.7941 17.5C11.3061 17.5 10.9553 17.3883 10.7418 17.1648C10.5385 16.9414 10.4368 16.6671 10.4368 16.3421V15.9765C10.4368 15.6514 10.5385 15.3772 10.7418 15.1537C10.9553 14.9303 11.3061 14.8186 11.7941 14.8186C12.2821 14.8186 12.6278 14.9303 12.8312 15.1537C13.0447 15.3772 13.1514 15.6514 13.1514 15.9765V16.3421C13.1514 16.6671 13.0447 16.9414 12.8312 17.1648C12.6278 17.3883 12.2821 17.5 11.7941 17.5Z" fill="#33FF99"/>
</svg>
