<svg width="12" height="16" viewBox="0 0 12 16" fill="none" xmlns="http://www.w3.org/2000/svg">
  <path
    d="M7.17972 7.63562C7.17972 7.28572 7.28782 6.94532 7.48514 6.67148L10.5411 2.43742C10.5866 2.37424 10.6114 2.29579 10.6114 2.21493V1.59784C10.6114 1.50327 10.5775 1.41258 10.5172 1.34571C10.4569 1.27884 10.375 1.24127 10.2897 1.24127H1.71042C1.6251 1.24127 1.54326 1.27884 1.48293 1.34571C1.42259 1.41258 1.3887 1.50327 1.3887 1.59784V2.21588C1.3887 2.29575 1.41358 2.37467 1.45905 2.43742L4.51585 6.67148C4.71317 6.94532 4.82127 7.28572 4.82127 7.63657V12.4202C4.82127 12.5552 4.88991 12.6788 4.99886 12.7387L7.18058 13.9482V7.63562H7.17972ZM1.71042 0.0536852H10.2897C11.0593 0.0536852 11.6838 0.745891 11.6838 1.59879V2.21683C11.6838 2.56673 11.5757 2.90713 11.3784 3.18097L8.32248 7.41503C8.27695 7.47821 8.25214 7.55666 8.25213 7.63752V14.1412C8.25209 14.3235 8.21001 14.5028 8.12989 14.662C8.04976 14.8212 7.93425 14.9551 7.79432 15.0509C7.65439 15.1467 7.49469 15.2013 7.33037 15.2095C7.16604 15.2177 7.00256 15.1793 6.85542 15.0978L4.51842 13.8027C4.28695 13.6744 4.09228 13.4772 3.95622 13.2332C3.82015 12.9892 3.74805 12.708 3.748 12.4212V7.63752C3.748 7.55666 3.72319 7.47821 3.67765 7.41503L0.620853 3.18002C0.423145 2.90608 0.315433 2.56572 0.31543 2.21493V1.59784C0.31543 0.74494 0.940002 0.0527344 1.70956 0.0527344L1.71042 0.0536852Z"
    fill="#000000"/>
</svg>
