<svg width="254" height="42" viewBox="0 0 254 42" fill="none" xmlns="http://www.w3.org/2000/svg">
<path d="M0.784183 23.188C0.784183 21.564 1.11085 20.1453 1.76418 18.932C2.43618 17.7187 3.36018 16.7853 4.53618 16.132C5.73085 15.4787 7.09352 15.152 8.62418 15.152C10.5842 15.152 12.2175 15.6653 13.5242 16.692C14.8495 17.7187 15.7175 19.1653 16.1282 21.032H11.0322C10.6029 19.8373 9.77218 19.24 8.54018 19.24C7.66285 19.24 6.96285 19.5853 6.44018 20.276C5.91752 20.948 5.65618 21.9187 5.65618 23.188C5.65618 24.4573 5.91752 25.4373 6.44018 26.128C6.96285 26.8 7.66285 27.136 8.54018 27.136C9.77218 27.136 10.6029 26.5387 11.0322 25.344H16.1282C15.7175 27.1733 14.8495 28.6107 13.5242 29.656C12.1989 30.7013 10.5655 31.224 8.62418 31.224C7.09352 31.224 5.73085 30.8973 4.53618 30.244C3.36018 29.5907 2.43618 28.6573 1.76418 27.444C1.11085 26.2307 0.784183 24.812 0.784183 23.188ZM23.4773 17.98C24.0373 17.1213 24.7373 16.4493 25.5773 15.964C26.4173 15.46 27.3506 15.208 28.3773 15.208V20.276H27.0613C25.8666 20.276 24.9706 20.5373 24.3733 21.06C23.776 21.564 23.4773 22.46 23.4773 23.748V31H18.6893V15.376H23.4773V17.98ZM37.7779 31.224C36.2472 31.224 34.8659 30.8973 33.6339 30.244C32.4205 29.5907 31.4592 28.6573 30.7499 27.444C30.0592 26.2307 29.7139 24.812 29.7139 23.188C29.7139 21.5827 30.0685 20.1733 30.7779 18.96C31.4872 17.728 32.4579 16.7853 33.6899 16.132C34.9219 15.4787 36.3032 15.152 37.8339 15.152C39.3645 15.152 40.7459 15.4787 41.9779 16.132C43.2099 16.7853 44.1805 17.728 44.8899 18.96C45.5992 20.1733 45.9539 21.5827 45.9539 23.188C45.9539 24.7933 45.5899 26.212 44.8619 27.444C44.1525 28.6573 43.1725 29.5907 41.9219 30.244C40.6899 30.8973 39.3085 31.224 37.7779 31.224ZM37.7779 27.08C38.6925 27.08 39.4672 26.744 40.1019 26.072C40.7552 25.4 41.0819 24.4387 41.0819 23.188C41.0819 21.9373 40.7645 20.976 40.1299 20.304C39.5139 19.632 38.7485 19.296 37.8339 19.296C36.9005 19.296 36.1259 19.632 35.5099 20.304C34.8939 20.9573 34.5859 21.9187 34.5859 23.188C34.5859 24.4387 34.8845 25.4 35.4819 26.072C36.0979 26.744 36.8632 27.08 37.7779 27.08ZM54.85 31.224C53.4873 31.224 52.274 30.9907 51.21 30.524C50.146 30.0573 49.306 29.4227 48.69 28.62C48.074 27.7987 47.7287 26.884 47.654 25.876H52.386C52.442 26.4173 52.694 26.856 53.142 27.192C53.59 27.528 54.1407 27.696 54.794 27.696C55.3913 27.696 55.8487 27.584 56.166 27.36C56.502 27.1173 56.67 26.8093 56.67 26.436C56.67 25.988 56.4367 25.6613 55.97 25.456C55.5033 25.232 54.7473 24.9893 53.702 24.728C52.582 24.4667 51.6487 24.196 50.902 23.916C50.1553 23.6173 49.5113 23.16 48.97 22.544C48.4287 21.9093 48.158 21.06 48.158 19.996C48.158 19.1 48.4007 18.288 48.886 17.56C49.39 16.8133 50.118 16.2253 51.07 15.796C52.0407 15.3667 53.1887 15.152 54.514 15.152C56.474 15.152 58.014 15.6373 59.134 16.608C60.2727 17.5787 60.926 18.8667 61.094 20.472H56.67C56.5953 19.9307 56.3527 19.5013 55.942 19.184C55.55 18.8667 55.0273 18.708 54.374 18.708C53.814 18.708 53.3847 18.82 53.086 19.044C52.7873 19.2493 52.638 19.5387 52.638 19.912C52.638 20.36 52.8713 20.696 53.338 20.92C53.8233 21.144 54.57 21.368 55.578 21.592C56.7353 21.8907 57.678 22.1893 58.406 22.488C59.134 22.768 59.7687 23.2347 60.31 23.888C60.87 24.5227 61.1593 25.3813 61.178 26.464C61.178 27.3787 60.9167 28.2 60.394 28.928C59.89 29.6373 59.1527 30.1973 58.182 30.608C57.23 31.0187 56.1193 31.224 54.85 31.224ZM70.4633 31.224C69.1006 31.224 67.8873 30.9907 66.8233 30.524C65.7593 30.0573 64.9193 29.4227 64.3033 28.62C63.6873 27.7987 63.3419 26.884 63.2673 25.876H67.9993C68.0553 26.4173 68.3073 26.856 68.7553 27.192C69.2033 27.528 69.7539 27.696 70.4073 27.696C71.0046 27.696 71.4619 27.584 71.7793 27.36C72.1153 27.1173 72.2833 26.8093 72.2833 26.436C72.2833 25.988 72.0499 25.6613 71.5833 25.456C71.1166 25.232 70.3606 24.9893 69.3153 24.728C68.1953 24.4667 67.2619 24.196 66.5153 23.916C65.7686 23.6173 65.1246 23.16 64.5833 22.544C64.0419 21.9093 63.7713 21.06 63.7713 19.996C63.7713 19.1 64.0139 18.288 64.4993 17.56C65.0033 16.8133 65.7313 16.2253 66.6833 15.796C67.6539 15.3667 68.8019 15.152 70.1273 15.152C72.0873 15.152 73.6273 15.6373 74.7473 16.608C75.8859 17.5787 76.5393 18.8667 76.7073 20.472H72.2833C72.2086 19.9307 71.9659 19.5013 71.5553 19.184C71.1633 18.8667 70.6406 18.708 69.9873 18.708C69.4273 18.708 68.9979 18.82 68.6993 19.044C68.4006 19.2493 68.2513 19.5387 68.2513 19.912C68.2513 20.36 68.4846 20.696 68.9513 20.92C69.4366 21.144 70.1833 21.368 71.1913 21.592C72.3486 21.8907 73.2913 22.1893 74.0193 22.488C74.7473 22.768 75.3819 23.2347 75.9233 23.888C76.4833 24.5227 76.7726 25.3813 76.7913 26.464C76.7913 27.3787 76.5299 28.2 76.0073 28.928C75.5033 29.6373 74.7659 30.1973 73.7953 30.608C72.8433 31.0187 71.7326 31.224 70.4633 31.224ZM78.7686 23.188C78.7686 21.564 79.0952 20.1453 79.7486 18.932C80.4206 17.7187 81.3446 16.7853 82.5206 16.132C83.7152 15.4787 85.0779 15.152 86.6086 15.152C88.5686 15.152 90.2019 15.6653 91.5086 16.692C92.8339 17.7187 93.7019 19.1653 94.1126 21.032H89.0166C88.5872 19.8373 87.7566 19.24 86.5246 19.24C85.6472 19.24 84.9472 19.5853 84.4246 20.276C83.9019 20.948 83.6406 21.9187 83.6406 23.188C83.6406 24.4573 83.9019 25.4373 84.4246 26.128C84.9472 26.8 85.6472 27.136 86.5246 27.136C87.7566 27.136 88.5872 26.5387 89.0166 25.344H94.1126C93.7019 27.1733 92.8339 28.6107 91.5086 29.656C90.1832 30.7013 88.5499 31.224 86.6086 31.224C85.0779 31.224 83.7152 30.8973 82.5206 30.244C81.3446 29.5907 80.4206 28.6573 79.7486 27.444C79.0952 26.2307 78.7686 24.812 78.7686 23.188ZM106.278 15.208C108.07 15.208 109.507 15.8053 110.59 17C111.672 18.176 112.214 19.8 112.214 21.872V31H107.454V22.516C107.454 21.4707 107.183 20.6587 106.642 20.08C106.1 19.5013 105.372 19.212 104.458 19.212C103.543 19.212 102.815 19.5013 102.274 20.08C101.732 20.6587 101.462 21.4707 101.462 22.516V31H96.6737V10.28H101.462V17.476C101.947 16.7853 102.61 16.2347 103.45 15.824C104.29 15.4133 105.232 15.208 106.278 15.208ZM114.589 23.16C114.589 21.5547 114.888 20.1453 115.485 18.932C116.101 17.7187 116.932 16.7853 117.977 16.132C119.022 15.4787 120.189 15.152 121.477 15.152C122.578 15.152 123.54 15.376 124.361 15.824C125.201 16.272 125.845 16.86 126.293 17.588V15.376H131.081V31H126.293V28.788C125.826 29.516 125.173 30.104 124.333 30.552C123.512 31 122.55 31.224 121.449 31.224C120.18 31.224 119.022 30.8973 117.977 30.244C116.932 29.572 116.101 28.6293 115.485 27.416C114.888 26.184 114.589 24.7653 114.589 23.16ZM126.293 23.188C126.293 21.9933 125.957 21.0507 125.285 20.36C124.632 19.6693 123.829 19.324 122.877 19.324C121.925 19.324 121.113 19.6693 120.441 20.36C119.788 21.032 119.461 21.9653 119.461 23.16C119.461 24.3547 119.788 25.3067 120.441 26.016C121.113 26.7067 121.925 27.052 122.877 27.052C123.829 27.052 124.632 26.7067 125.285 26.016C125.957 25.3253 126.293 24.3827 126.293 23.188ZM136.953 13.752C136.113 13.752 135.422 13.5093 134.881 13.024C134.358 12.52 134.097 11.904 134.097 11.176C134.097 10.4293 134.358 9.81333 134.881 9.328C135.422 8.824 136.113 8.572 136.953 8.572C137.774 8.572 138.446 8.824 138.969 9.328C139.51 9.81333 139.781 10.4293 139.781 11.176C139.781 11.904 139.51 12.52 138.969 13.024C138.446 13.5093 137.774 13.752 136.953 13.752ZM139.333 15.376V31H134.545V15.376H139.333ZM152.323 15.208C154.152 15.208 155.608 15.8053 156.691 17C157.792 18.176 158.343 19.8 158.343 21.872V31H153.583V22.516C153.583 21.4707 153.312 20.6587 152.771 20.08C152.229 19.5013 151.501 19.212 150.587 19.212C149.672 19.212 148.944 19.5013 148.403 20.08C147.861 20.6587 147.591 21.4707 147.591 22.516V31H142.803V15.376H147.591V17.448C148.076 16.7573 148.729 16.216 149.551 15.824C150.372 15.4133 151.296 15.208 152.323 15.208ZM176.398 22.936C176.398 23.384 176.37 23.8507 176.314 24.336H165.478C165.552 25.3067 165.86 26.0533 166.402 26.576C166.962 27.08 167.643 27.332 168.446 27.332C169.64 27.332 170.471 26.828 170.938 25.82H176.034C175.772 26.8467 175.296 27.7707 174.606 28.592C173.934 29.4133 173.084 30.0573 172.058 30.524C171.031 30.9907 169.883 31.224 168.614 31.224C167.083 31.224 165.72 30.8973 164.526 30.244C163.331 29.5907 162.398 28.6573 161.726 27.444C161.054 26.2307 160.718 24.812 160.718 23.188C160.718 21.564 161.044 20.1453 161.698 18.932C162.37 17.7187 163.303 16.7853 164.498 16.132C165.692 15.4787 167.064 15.152 168.614 15.152C170.126 15.152 171.47 15.4693 172.646 16.104C173.822 16.7387 174.736 17.644 175.39 18.82C176.062 19.996 176.398 21.368 176.398 22.936ZM171.498 21.676C171.498 20.8547 171.218 20.2013 170.658 19.716C170.098 19.2307 169.398 18.988 168.558 18.988C167.755 18.988 167.074 19.2213 166.514 19.688C165.972 20.1547 165.636 20.8173 165.506 21.676H171.498ZM177.972 23.16C177.972 21.5547 178.27 20.1453 178.868 18.932C179.484 17.7187 180.314 16.7853 181.36 16.132C182.405 15.4787 183.572 15.152 184.86 15.152C185.886 15.152 186.82 15.3667 187.66 15.796C188.518 16.2253 189.19 16.804 189.676 17.532V10.28H194.464V31H189.676V28.76C189.228 29.5067 188.584 30.104 187.744 30.552C186.922 31 185.961 31.224 184.86 31.224C183.572 31.224 182.405 30.8973 181.36 30.244C180.314 29.572 179.484 28.6293 178.868 27.416C178.27 26.184 177.972 24.7653 177.972 23.16ZM189.676 23.188C189.676 21.9933 189.34 21.0507 188.668 20.36C188.014 19.6693 187.212 19.324 186.26 19.324C185.308 19.324 184.496 19.6693 183.824 20.36C183.17 21.032 182.844 21.9653 182.844 23.16C182.844 24.3547 183.17 25.3067 183.824 26.016C184.496 26.7067 185.308 27.052 186.26 27.052C187.212 27.052 188.014 26.7067 188.668 26.016C189.34 25.3253 189.676 24.3827 189.676 23.188Z" fill="#111127"/>
<rect x="208" y="5" width="46" height="12" rx="2" fill="#9F9FA8"/>
<path d="M218.716 7.745V8.582H217.051V14H216.025V8.582H214.351V7.745H218.716ZM224.3 11.399C224.3 11.585 224.288 11.753 224.264 11.903H220.475C220.505 12.299 220.652 12.617 220.916 12.857C221.18 13.097 221.504 13.217 221.888 13.217C222.44 13.217 222.83 12.986 223.058 12.524H224.165C224.015 12.98 223.742 13.355 223.346 13.649C222.956 13.937 222.47 14.081 221.888 14.081C221.414 14.081 220.988 13.976 220.61 13.766C220.238 13.55 219.944 13.25 219.728 12.866C219.518 12.476 219.413 12.026 219.413 11.516C219.413 11.006 219.515 10.559 219.719 10.175C219.929 9.785 220.22 9.485 220.592 9.275C220.97 9.065 221.402 8.96 221.888 8.96C222.356 8.96 222.773 9.062 223.139 9.266C223.505 9.47 223.79 9.758 223.994 10.13C224.198 10.496 224.3 10.919 224.3 11.399ZM223.229 11.075C223.223 10.697 223.088 10.394 222.824 10.166C222.56 9.938 222.233 9.824 221.843 9.824C221.489 9.824 221.186 9.938 220.934 10.166C220.682 10.388 220.532 10.691 220.484 11.075H223.229ZM227.11 14.081C226.72 14.081 226.369 14.012 226.057 13.874C225.751 13.73 225.508 13.538 225.328 13.298C225.148 13.052 225.052 12.779 225.04 12.479H226.102C226.12 12.689 226.219 12.866 226.399 13.01C226.585 13.148 226.816 13.217 227.092 13.217C227.38 13.217 227.602 13.163 227.758 13.055C227.92 12.941 228.001 12.797 228.001 12.623C228.001 12.437 227.911 12.299 227.731 12.209C227.557 12.119 227.278 12.02 226.894 11.912C226.522 11.81 226.219 11.711 225.985 11.615C225.751 11.519 225.547 11.372 225.373 11.174C225.205 10.976 225.121 10.715 225.121 10.391C225.121 10.127 225.199 9.887 225.355 9.671C225.511 9.449 225.733 9.275 226.021 9.149C226.315 9.023 226.651 8.96 227.029 8.96C227.593 8.96 228.046 9.104 228.388 9.392C228.736 9.674 228.922 10.061 228.946 10.553H227.92C227.902 10.331 227.812 10.154 227.65 10.022C227.488 9.89 227.269 9.824 226.993 9.824C226.723 9.824 226.516 9.875 226.372 9.977C226.228 10.079 226.156 10.214 226.156 10.382C226.156 10.514 226.204 10.625 226.3 10.715C226.396 10.805 226.513 10.877 226.651 10.931C226.789 10.979 226.993 11.042 227.263 11.12C227.623 11.216 227.917 11.315 228.145 11.417C228.379 11.513 228.58 11.657 228.748 11.849C228.916 12.041 229.003 12.296 229.009 12.614C229.009 12.896 228.931 13.148 228.775 13.37C228.619 13.592 228.397 13.766 228.109 13.892C227.827 14.018 227.494 14.081 227.11 14.081ZM231.315 9.878V12.623C231.315 12.809 231.357 12.944 231.441 13.028C231.531 13.106 231.681 13.145 231.891 13.145H232.521V14H231.711C231.249 14 230.895 13.892 230.649 13.676C230.403 13.46 230.28 13.109 230.28 12.623V9.878H229.695V9.041H230.28V7.808H231.315V9.041H232.521V9.878H231.315ZM238.605 14H237.579L234.492 9.329V14H233.466V7.736H234.492L237.579 12.398V7.736H238.605V14ZM244.498 11.399C244.498 11.585 244.486 11.753 244.462 11.903H240.673C240.703 12.299 240.85 12.617 241.114 12.857C241.378 13.097 241.702 13.217 242.086 13.217C242.638 13.217 243.028 12.986 243.256 12.524H244.363C244.213 12.98 243.94 13.355 243.544 13.649C243.154 13.937 242.668 14.081 242.086 14.081C241.612 14.081 241.186 13.976 240.808 13.766C240.436 13.55 240.142 13.25 239.926 12.866C239.716 12.476 239.611 12.026 239.611 11.516C239.611 11.006 239.713 10.559 239.917 10.175C240.127 9.785 240.418 9.485 240.79 9.275C241.168 9.065 241.6 8.96 242.086 8.96C242.554 8.96 242.971 9.062 243.337 9.266C243.703 9.47 243.988 9.758 244.192 10.13C244.396 10.496 244.498 10.919 244.498 11.399ZM243.427 11.075C243.421 10.697 243.286 10.394 243.022 10.166C242.758 9.938 242.431 9.824 242.041 9.824C241.687 9.824 241.384 9.938 241.132 10.166C240.88 10.388 240.73 10.691 240.682 11.075H243.427ZM246.704 9.878V12.623C246.704 12.809 246.746 12.944 246.83 13.028C246.92 13.106 247.07 13.145 247.28 13.145H247.91V14H247.1C246.638 14 246.284 13.892 246.038 13.676C245.792 13.46 245.669 13.109 245.669 12.623V9.878H245.084V9.041H245.669V7.808H246.704V9.041H247.91V9.878H246.704Z" fill="white"/>
</svg>
