<svg width="50" height="50" viewBox="0 0 50 50" fill="none" xmlns="http://www.w3.org/2000/svg">
  <path d="M13.353 11.2354H12.2938V38.7641H13.353V11.2354Z" fill="#33FE99"/>
  <path fill-rule="evenodd" clip-rule="evenodd" d="M10.1762 11.2354H11.2354V38.7641H10.1762V11.2354ZM18.0307 33.5533C17.7094 33.2132 17.4052 32.8552 17.1196 32.4805C15.361 30.1849 14.4117 27.3718 14.4199 24.48C14.4199 20.9697 15.8143 17.6033 18.2964 15.1212C20.7786 12.6391 24.145 11.2446 27.6552 11.2446C31.0342 11.2446 34.2799 12.5367 36.7319 14.8473L40.3429 11.2354H41.8412L37.4732 15.6041C39.6675 18.031 40.8905 21.1924 40.8905 24.48C40.8979 27.3441 39.9652 30.1315 38.2356 32.4144H36.8766C38.3743 30.6764 39.3507 28.5507 39.6934 26.2821C40.0361 24.0135 39.7312 21.6942 38.8136 19.5913C38.2939 18.4 37.5895 17.3056 36.7317 16.3457L35.2242 17.8536C35.9177 18.6483 36.4867 19.5524 36.9047 20.5363C37.7723 22.579 37.9404 24.8512 37.3827 26.9993C36.825 29.1473 35.5728 31.0508 33.8211 32.4134H31.9C33.6903 31.4532 35.1031 29.9155 35.9086 28.0504C36.714 26.1854 36.8648 24.1026 36.3362 22.141C35.9833 20.8309 35.3412 19.6263 34.467 18.6109L32.9701 20.1081C33.1115 20.2807 33.2449 20.4605 33.3696 20.6471C34.1258 21.7789 34.5295 23.1096 34.5295 24.4708C34.5273 26.2955 33.8015 28.0448 32.5113 29.3351C31.221 30.6253 29.4717 31.3511 27.647 31.3532C26.2858 31.3532 24.9552 30.9496 23.8233 30.1933C23.6371 30.0689 23.4576 29.9358 23.2853 29.7947L21.7762 31.3041C22.4243 31.8618 23.153 32.3281 23.9431 32.6848V33.8284H23.9421C22.8692 33.4041 21.8849 32.8016 21.0271 32.0533L19.537 33.5437C20.807 34.6764 22.305 35.5398 23.9411 36.0696V37.1786L23.9421 37.1827C22.0194 36.6145 20.2602 35.6231 18.7875 34.2933L14.3175 38.7641H12.8213L18.0307 33.5533ZM33.7299 17.8501L32.2375 19.3429C31.6623 18.828 31.0016 18.4108 30.2808 18.1122C29.0232 17.5913 27.6394 17.455 26.3043 17.7206C24.9692 17.9861 23.7429 18.6416 22.7804 19.6042C21.8179 20.5667 21.1624 21.793 20.8968 23.1281C20.6312 24.4632 20.7675 25.847 21.2885 27.1046C21.5872 27.8259 22.0049 28.4871 22.5203 29.0626L21.0157 30.5675C20.4776 29.9812 20.0161 29.3222 19.6465 28.6051C18.7159 26.7993 18.4236 24.7316 18.8172 22.7385C19.2109 20.7454 20.2673 18.9442 21.8146 17.6277C23.362 16.3113 25.3092 15.5571 27.3396 15.4878C29.37 15.4186 31.3641 16.0383 32.9976 17.2463C33.2531 17.4353 33.4974 17.6369 33.7299 17.8501ZM21.9356 25.6069C22.1356 26.6124 22.597 27.545 23.2704 28.3122L24.7731 26.8091C24.5474 26.5319 24.3618 26.2219 24.2235 25.8879C23.943 25.2108 23.8696 24.4656 24.0126 23.7467C24.1556 23.0278 24.5086 22.3674 25.0269 21.8491C25.5452 21.3309 26.2055 20.9779 26.9244 20.8349C27.6433 20.6919 28.3885 20.7653 29.0657 21.0458C29.3993 21.184 29.709 21.3694 29.9861 21.5948L31.4873 20.0932C30.4284 19.1642 29.0643 18.6475 27.647 18.6475C26.4953 18.6475 25.3694 18.989 24.4118 19.6289C23.4541 20.2688 22.7077 21.1783 22.267 22.2423C21.8262 23.3064 21.7109 24.4773 21.9356 25.6069ZM25.5527 27.5269C25.5645 27.535 25.5765 27.5431 25.5885 27.5511C26.1979 27.9584 26.9144 28.1757 27.6474 28.1757C28.6303 28.1757 29.573 27.7853 30.268 27.0902C30.963 26.3952 31.3534 25.4526 31.3534 24.4697C31.3534 23.7367 31.1361 23.0202 30.7289 22.4107C30.7207 22.3985 30.7125 22.3864 30.7043 22.3743L32.2169 20.8614C33.0247 21.8841 33.4703 23.1545 33.4703 24.4708C33.4703 25.6225 33.1288 26.7484 32.4889 27.706C31.849 28.6637 30.9395 29.4101 29.8755 29.8508C28.8114 30.2916 27.6405 30.4069 26.5109 30.1822C25.6051 30.002 24.7584 29.6097 24.0385 29.0413L25.5527 27.5269ZM18.778 32.8058L20.2671 31.3163C19.7911 30.8034 19.3671 30.2394 19.004 29.6315C17.8657 27.7264 17.3893 25.4983 17.6487 23.2942C17.9081 21.0902 18.8889 19.0336 20.4383 17.4448C21.9878 15.8559 24.019 14.8239 26.2159 14.5092C28.4128 14.1946 30.6521 14.615 32.5853 15.705C33.2755 16.0942 33.9128 16.561 34.4865 17.0932L35.9922 15.5872C35.5309 15.1536 35.0347 14.7549 34.5072 14.3956C32.6111 13.1038 30.3887 12.3738 28.0959 12.2895C25.8031 12.2053 23.5331 12.7704 21.5473 13.9196C19.5616 15.0688 17.9407 16.7555 16.8714 18.7854C15.8021 20.8154 15.3278 23.106 15.5032 25.3937C15.6786 27.6813 16.4964 29.8729 17.8627 31.7161C18.1476 32.0981 18.4533 32.4618 18.778 32.8058ZM27.2478 37.705C26.9819 37.72 26.7192 37.64 26.5068 37.4793C26.4055 37.3734 26.3289 37.2464 26.2823 37.1074C26.2358 36.9685 26.2204 36.8209 26.2375 36.6753V35.1252H25.4436V34.554H25.9142C26.0061 34.5628 26.0978 34.5347 26.169 34.4761C26.2403 34.4174 26.2854 34.3328 26.2944 34.2409L26.3899 33.7327H26.9103V34.5591H28.1555V35.1303H26.9103V36.6682C26.9035 36.7305 26.9098 36.7936 26.9289 36.8533C26.948 36.913 26.9794 36.968 27.0211 37.0148C27.1334 37.0926 27.2693 37.1286 27.4054 37.1165H28.1464V37.7131L27.2478 37.705ZM30.4364 37.7812C30.2746 37.7922 30.1124 37.7661 29.9622 37.705C29.812 37.6439 29.6776 37.5493 29.5694 37.4285C29.3533 37.1321 29.2486 36.7689 29.2736 36.4029V34.554H29.9475V36.3196C29.9343 36.536 29.9937 36.7506 30.1163 36.9294C30.1786 37.0049 30.2581 37.0642 30.3482 37.1024C30.4382 37.1406 30.5361 37.1566 30.6336 37.149C30.7419 37.1518 30.8496 37.1324 30.9502 37.0921C31.0507 37.0517 31.1419 36.9911 31.2181 36.9142C31.3016 36.8227 31.3658 36.7154 31.4068 36.5985C31.4479 36.4817 31.4649 36.3577 31.457 36.2342V34.557H32.1309V37.708H31.5424L31.4854 37.2384H31.458C31.3637 37.4003 31.2279 37.534 31.0646 37.6257C30.8738 37.7341 30.6568 37.7879 30.4375 37.7812H30.4364ZM34.6995 37.7812C34.4942 37.7881 34.291 37.7385 34.112 37.6379C33.9543 37.5436 33.8276 37.4056 33.7471 37.2405H33.7094L33.6525 37.704H33.0742V33.1299H33.7471V34.9595C33.8365 34.8194 33.9595 34.7038 34.1049 34.6231C34.2848 34.5218 34.4889 34.4712 34.6954 34.4767C34.9433 34.4726 35.1875 34.5373 35.4008 34.6638C35.6157 34.797 35.7867 34.9903 35.8928 35.2198C36.0124 35.5078 36.0739 35.8166 36.0739 36.1285C36.0739 36.4403 36.0124 36.7491 35.8928 37.0372C35.7866 37.2666 35.6156 37.4599 35.4008 37.5932C35.1888 37.7191 34.9461 37.7842 34.6995 37.7812ZM34.5597 37.1399C34.6722 37.1432 34.7842 37.1226 34.8881 37.0794C34.9922 37.0361 35.086 36.9711 35.163 36.8888C35.3364 36.6778 35.4216 36.4079 35.4008 36.1356C35.4214 35.8611 35.3363 35.5891 35.163 35.3753C35.0848 35.2953 34.9914 35.2318 34.8883 35.1885C34.7853 35.1451 34.6746 35.1228 34.5628 35.1228C34.4509 35.1228 34.3403 35.1451 34.2372 35.1885C34.1341 35.2318 34.0408 35.2953 33.9626 35.3753C33.8071 35.5974 33.7237 35.8619 33.7237 36.133C33.7237 36.4042 33.8071 36.6687 33.9626 36.8908C34.0389 36.9723 34.1316 37.0366 34.2346 37.0796C34.3375 37.1224 34.4483 37.143 34.5597 37.1399ZM38.377 37.7812C38.0938 37.7855 37.8147 37.7124 37.57 37.5698C37.3375 37.4329 37.148 37.2336 37.0231 36.9945C36.8871 36.7294 36.8193 36.4345 36.8259 36.1366C36.8195 35.8352 36.8861 35.5366 37.0201 35.2665C37.1427 35.0234 37.3325 34.8205 37.5669 34.6821C37.8137 34.5389 38.0948 34.4658 38.3801 34.4706C38.6574 34.4646 38.9308 34.5379 39.1678 34.6821C39.3833 34.8167 39.5588 35.0066 39.6761 35.2319C39.7978 35.4653 39.86 35.7251 39.857 35.9882V36.1244C39.857 36.1732 39.855 36.2271 39.8509 36.286H37.4917C37.493 36.4101 37.5189 36.5326 37.568 36.6465C37.617 36.7605 37.6882 36.8635 37.7773 36.9498C37.9395 37.0968 38.1511 37.1773 38.3699 37.1754C38.5369 37.1844 38.7024 37.1411 38.8436 37.0514C38.9615 36.9667 39.0512 36.8484 39.1008 36.7119H39.7808C39.7067 37.0093 39.5397 37.2753 39.304 37.4712C39.0436 37.6843 38.7142 37.7945 38.3781 37.7812H38.377ZM38.377 35.0622C38.1768 35.0595 37.9816 35.1255 37.8241 35.2492C37.6585 35.3813 37.5477 35.5699 37.513 35.7788H39.1861C39.1809 35.6809 39.1562 35.5851 39.1137 35.4968C39.0711 35.4085 39.0114 35.3295 38.9381 35.2645C38.7831 35.1288 38.5829 35.0563 38.377 35.0612V35.0622ZM9.11836 11.2357H8.0592V38.7645H9.11836V11.2357Z" fill="#33FE99"/>
</svg>
