<svg width="135" height="36" viewBox="0 0 135 36" fill="none" xmlns="http://www.w3.org/2000/svg">
<path d="M8 18.506C7.99881 16.0335 8.73092 13.6161 10.1037 11.5597C11.4765 9.50334 13.4283 7.90025 15.7123 6.95323C17.9963 6.00622 20.5098 5.75782 22.935 6.23946C25.3601 6.7211 27.588 7.91113 29.3367 9.65905C31.0855 11.407 32.2766 13.6342 32.7594 16.0592C33.2422 18.4841 32.995 20.9977 32.0491 23.2822C31.1031 25.5666 29.501 27.5192 27.4453 28.893C25.3895 30.2667 22.9725 31 20.5 31C17.187 30.9963 14.0106 29.679 11.6674 27.3369C9.32415 24.9948 8.00529 21.819 8 18.506ZM8.992 18.506C8.99319 20.7799 9.66846 23.0024 10.9325 24.8926C12.1965 26.7828 13.9925 28.2559 16.0935 29.1256C18.1944 29.9953 20.5061 30.2226 22.7363 29.7789C24.9664 29.3351 27.015 28.2402 28.623 26.6324C30.231 25.0247 31.3263 22.9763 31.7705 20.7462C32.2146 18.5161 31.9877 16.2044 31.1183 14.1033C30.249 12.0022 28.7762 10.2059 26.8863 8.94158C24.9963 7.67724 22.7739 7.00159 20.5 7.00001C17.4484 7.00054 14.5219 8.21288 12.3639 10.3705C10.2059 12.5281 8.99306 15.4544 8.992 18.506ZM10.992 18.506C10.9908 16.6272 11.5468 14.7902 12.5896 13.2273C13.6324 11.6644 15.1152 10.4458 16.8505 9.72564C18.5858 9.00546 20.4957 8.816 22.3387 9.18123C24.1817 9.54647 25.875 10.45 27.2046 11.7775C28.5341 13.1051 29.4401 14.7971 29.808 16.6395C30.176 18.482 29.9894 20.3922 29.2717 22.1286C28.5541 23.865 27.3377 25.3496 25.7764 26.3947C24.215 27.4398 22.3788 27.9984 20.5 28C17.9821 27.9982 15.5677 26.9975 13.7867 25.2176C12.0056 23.4377 11.0034 21.024 11 18.506H10.992ZM11.992 18.506C11.992 20.1871 12.4905 21.8305 13.4245 23.2284C14.3585 24.6262 15.686 25.7156 17.2392 26.359C18.7924 27.0023 20.5014 27.1707 22.1503 26.8427C23.7991 26.5147 25.3137 25.7052 26.5024 24.5164C27.6912 23.3277 28.5007 21.8131 28.8287 20.1643C29.1567 18.5154 28.9883 16.8064 28.345 15.2532C27.7016 13.7 26.6122 12.3725 25.2143 11.4385C23.8165 10.5045 22.1731 10.006 20.492 10.006C18.2396 10.01 16.0807 10.907 14.4888 12.5005C12.8969 14.0939 12.0019 16.2536 12 18.506H11.992Z" fill="#33FF99"/>
<path d="M5 6H4V32H5V6Z" fill="#33FF99"/>
<path d="M3 6H2V32H3V6Z" fill="#33FF99"/>
<path d="M7 6H6V32H7V6Z" fill="#33FF99"/>
<path d="M7.91107 32H6.49805L32.4911 6H33.9061L7.91107 32Z" fill="#33FF99"/>
<path d="M20.5 25C19.2144 25 17.9577 24.6188 16.8888 23.9045C15.8199 23.1903 14.9868 22.1752 14.4948 20.9874C14.0029 19.7997 13.8741 18.4928 14.1249 17.2319C14.3757 15.9711 14.9948 14.8129 15.9038 13.9038C16.8129 12.9948 17.9711 12.3757 19.2319 12.1249C20.4928 11.8741 21.7997 12.0029 22.9874 12.4948C24.1752 12.9868 25.1903 13.8199 25.9045 14.8888C26.6188 15.9577 27 17.2144 27 18.5C26.9979 20.2233 26.3124 21.8754 25.0939 23.0939C23.8754 24.3124 22.2233 24.9979 20.5 25ZM20.5 13C19.4122 13 18.3489 13.3226 17.4444 13.9269C16.5399 14.5313 15.8349 15.3903 15.4186 16.3953C15.0024 17.4003 14.8935 18.5061 15.1057 19.573C15.3179 20.6399 15.8417 21.6199 16.6109 22.3891C17.3801 23.1583 18.3601 23.6821 19.427 23.8944C20.4939 24.1066 21.5998 23.9977 22.6047 23.5814C23.6097 23.1651 24.4687 22.4601 25.0731 21.5557C25.6774 20.6512 26 19.5878 26 18.5C25.9987 17.0416 25.4188 15.6433 24.3877 14.612C23.3566 13.5807 21.9584 13.0006 20.5 12.999V13Z" fill="#33FF99"/>
<path d="M20.5 21.999C19.8078 21.999 19.131 21.7937 18.5555 21.4091C17.9799 21.0245 17.5313 20.4779 17.2664 19.8384C17.0015 19.1988 16.9322 18.4951 17.0673 17.8162C17.2023 17.1372 17.5357 16.5136 18.0251 16.0241C18.5146 15.5346 19.1383 15.2013 19.8172 15.0663C20.4961 14.9312 21.1999 15.0005 21.8394 15.2654C22.479 15.5303 23.0256 15.9789 23.4102 16.5545C23.7947 17.1301 24 17.8068 24 18.499C24 19.4273 23.6312 20.3175 22.9748 20.9739C22.3185 21.6302 21.4283 21.999 20.5 21.999Z" fill="#33FF99"/>
<path d="M123.375 4H109.625C109.28 4 109 4.44772 109 5V13C109 13.5523 109.28 14 109.625 14H123.375C123.72 14 124 13.5523 124 13V5C124 4.44772 123.72 4 123.375 4Z" fill="#313132"/>
<path d="M113 12L110.993 5.7H111.803L113.45 11.019L115.097 5.7H115.916L113.9 12H113ZM118.846 12.108C118.414 12.108 118.042 12.027 117.73 11.865C117.418 11.703 117.172 11.484 116.992 11.208C116.812 10.932 116.704 10.617 116.668 10.263H117.442C117.496 10.605 117.649 10.884 117.901 11.1C118.153 11.31 118.471 11.415 118.855 11.415C119.305 11.415 119.659 11.271 119.917 10.983C120.175 10.689 120.304 10.32 120.304 9.876C120.304 9.408 120.172 9.042 119.908 8.778C119.644 8.508 119.302 8.373 118.882 8.373C118.546 8.373 118.258 8.451 118.018 8.607C117.784 8.757 117.595 8.949 117.451 9.183H116.731L117.271 5.7H120.637V6.393H117.865L117.532 8.265H117.577C117.715 8.115 117.901 7.983 118.135 7.869C118.375 7.755 118.651 7.698 118.963 7.698C119.377 7.698 119.737 7.788 120.043 7.968C120.355 8.142 120.598 8.394 120.772 8.724C120.946 9.048 121.033 9.429 121.033 9.867C121.033 10.275 120.946 10.65 120.772 10.992C120.604 11.328 120.355 11.598 120.025 11.802C119.701 12.006 119.308 12.108 118.846 12.108Z" fill="#BAC0CC"/>
<path d="M47.7118 28C46.3491 28 45.2665 27.6733 44.4638 27.02C43.6611 26.348 43.2598 25.1627 43.2598 23.464V16.632H39.7598V14.112H41.8318C42.7838 14.112 43.3438 13.6453 43.5118 12.712L43.9318 10.472H46.2278V14.112H51.7158V16.632H46.2278V23.408C46.2278 24.136 46.3865 24.6493 46.7038 24.948C47.0398 25.228 47.6091 25.368 48.4118 25.368H51.6598V28H47.7118ZM61.7569 28.336C60.0769 28.336 58.7982 27.8227 57.9209 26.796C57.0622 25.7507 56.6329 24.2387 56.6329 22.26V14.112H59.6009V21.896C59.6009 23.0347 59.8435 23.9307 60.3289 24.584C60.8329 25.2187 61.5982 25.536 62.6249 25.536C63.6515 25.536 64.5102 25.1907 65.2009 24.5C65.8915 23.8093 66.2369 22.8107 66.2369 21.504V14.112H69.2049V28H66.6289L66.3769 25.928H66.2369C65.8635 26.6 65.2849 27.1693 64.5009 27.636C63.7169 28.1027 62.8022 28.336 61.7569 28.336ZM80.5339 28.336C79.5073 28.336 78.6393 28.1307 77.9299 27.72C77.2393 27.2907 76.7073 26.7027 76.3339 25.956H76.1659L75.9139 28H73.3659V7.84H76.3339V15.904C76.6699 15.344 77.2019 14.8493 77.9299 14.42C78.6579 13.9907 79.5259 13.776 80.5339 13.776C81.6913 13.776 82.7273 14.056 83.6419 14.616C84.5566 15.1573 85.2753 15.9693 85.7979 17.052C86.3393 18.1347 86.6099 19.4693 86.6099 21.056C86.6099 22.6427 86.3393 23.9773 85.7979 25.06C85.2753 26.1427 84.5566 26.964 83.6419 27.524C82.7273 28.0653 81.6913 28.336 80.5339 28.336ZM79.9179 25.508C80.9819 25.508 81.8593 25.144 82.5499 24.416C83.2593 23.6693 83.6139 22.5587 83.6139 21.084C83.6139 19.5907 83.2593 18.4707 82.5499 17.724C81.8593 16.9773 80.9819 16.604 79.9179 16.604C78.8539 16.604 77.9673 16.9773 77.2579 17.724C76.5673 18.452 76.2219 19.5627 76.2219 21.056C76.2219 22.5307 76.5673 23.6413 77.2579 24.388C77.9673 25.1347 78.8539 25.508 79.9179 25.508ZM96.735 28.336C95.391 28.336 94.2057 28.0373 93.179 27.44C92.1523 26.824 91.3497 25.9747 90.771 24.892C90.1923 23.8093 89.903 22.5493 89.903 21.112C89.903 19.656 90.183 18.3773 90.743 17.276C91.3217 16.1747 92.1243 15.316 93.151 14.7C94.1963 14.084 95.4003 13.776 96.763 13.776C98.107 13.776 99.2643 14.084 100.235 14.7C101.206 15.2973 101.952 16.1 102.475 17.108C103.016 18.116 103.287 19.2267 103.287 20.44C103.287 20.6267 103.287 20.832 103.287 21.056C103.287 21.2613 103.278 21.4947 103.259 21.756H92.815C92.9083 23.044 93.3283 24.024 94.075 24.696C94.8217 25.3493 95.699 25.676 96.707 25.676C97.5843 25.676 98.275 25.4987 98.779 25.144C99.3017 24.7707 99.6843 24.2667 99.927 23.632H102.923C102.587 24.9573 101.887 26.0773 100.823 26.992C99.759 27.888 98.3963 28.336 96.735 28.336ZM96.735 16.352C95.8203 16.352 95.0083 16.632 94.299 17.192C93.5897 17.7333 93.1323 18.4987 92.927 19.488H100.319C100.244 18.5547 99.8803 17.7987 99.227 17.22C98.5737 16.6413 97.743 16.352 96.735 16.352Z" fill="#33FF99"/>
</svg>
