<svg width="230" height="230" viewBox="0 0 230 230" fill="none" xmlns="http://www.w3.org/2000/svg">
  <g opacity="0.3">
    <path fill-rule="evenodd" clip-rule="evenodd" d="M115.439 216.983H115.437C91.0164 216.983 67.3512 208.481 48.4732 192.925C29.5952 177.37 16.6723 155.722 11.9075 131.67C7.14275 107.619 10.8311 82.6528 22.3438 61.0262C33.8565 39.3996 52.4807 22.4512 75.0424 13.0677C97.604 3.6842 122.708 2.4459 146.077 9.56362C156.603 12.7698 166.484 17.5821 175.406 23.7665L176.026 22.9797C167.007 16.7198 157.014 11.8497 146.368 8.60701C122.777 1.4216 97.4344 2.67171 74.6584 12.1443C51.8824 21.617 33.0822 38.726 21.4611 60.5563C9.84001 82.3865 6.11705 107.587 10.9266 131.865C15.7361 156.142 28.7806 177.994 47.8373 193.697C66.894 209.4 90.784 217.983 115.437 217.983C129.435 218.021 143.303 215.271 156.236 209.892C169.169 204.513 180.912 196.612 190.783 186.646C208.215 169.143 219.064 146.112 221.48 121.478C223.897 96.8446 217.731 72.1315 204.035 51.5501C200.693 46.5273 196.952 41.8264 192.864 37.485L192.156 38.1925C196.198 42.4871 199.897 47.1367 203.203 52.1042C216.771 72.4933 222.879 96.9761 220.485 121.381C218.091 145.786 207.344 168.601 190.075 185.94L190.073 185.942C180.294 195.814 168.663 203.641 155.852 208.969C143.041 214.297 129.305 217.021 115.439 216.983ZM184.384 45.9645C187.926 49.7551 191.17 53.8517 194.075 58.2227C206.221 76.4972 211.688 98.4394 209.545 120.311C207.402 142.182 197.783 162.63 182.324 178.172C173.57 187.022 163.156 194.038 151.685 198.815C140.214 203.592 127.914 206.034 115.498 206C93.6341 205.999 72.4477 198.377 55.5481 184.434C38.6479 170.49 27.0806 151.088 22.8158 129.533C18.551 107.977 21.8522 85.6024 32.1574 66.2194C42.4628 46.8363 59.1351 31.6439 79.3346 23.2322C99.5342 14.8205 122.01 13.7103 142.933 20.0911C152.122 22.8934 160.762 27.0645 168.591 32.4096L167.97 33.1967C160.239 27.9268 151.711 23.8134 142.641 21.0476C121.941 14.7347 99.7041 15.833 79.719 24.1554C59.7339 32.4778 43.2375 47.5093 33.0404 66.6888C22.8433 85.8683 19.5766 108.009 23.7968 129.339C28.017 150.668 39.463 169.867 56.1845 183.663C72.9061 197.459 93.8686 205 115.5 205C127.784 205.033 139.952 202.617 151.3 197.891C162.649 193.166 172.952 186.224 181.614 177.468C196.91 162.09 206.429 141.856 208.55 120.213C210.67 98.5707 205.26 76.8585 193.242 58.7763C190.374 54.4607 187.172 50.4157 183.677 46.672L184.384 45.9645Z" fill="#C7CFD6"/>
    <path d="M176.114 23.6285C176.635 24.085 176.843 24.9749 176.557 26.2108C176.275 27.4233 175.539 28.8391 174.392 30.148C173.246 31.457 171.94 32.3739 170.775 32.8125C169.588 33.2594 168.678 33.171 168.157 32.7145C167.635 32.258 167.428 31.368 167.714 30.1322C167.996 28.9197 168.732 27.5039 169.879 26.195C171.025 24.886 172.331 23.9691 173.496 23.5305C174.683 23.0835 175.593 23.172 176.114 23.6285Z" stroke="#C7CFD6"/>
    <path d="M192.537 37.861C193.022 38.3614 193.161 39.2604 192.789 40.4522C192.424 41.6232 191.594 42.9547 190.367 44.1447C189.139 45.3347 187.783 46.1233 186.601 46.4526C185.399 46.7877 184.504 46.6215 184.019 46.1211C183.534 45.6206 183.395 44.7216 183.767 43.5298C184.133 42.3588 184.963 41.0273 186.19 39.8373C187.417 38.6474 188.773 37.8587 189.955 37.5295C191.158 37.1944 192.052 37.3605 192.537 37.861Z" stroke="#C7CFD6"/>
  </g>
  <path opacity="0.3" d="M83.5 167C93.7173 167 102 158.717 102 148.5C102 138.283 93.7173 130 83.5 130C73.2827 130 65 138.283 65 148.5C65 158.717 73.2827 167 83.5 167Z" fill="#C7CFD6"/>
  <path opacity="0.15" d="M64.5 95C67.5376 95 70 92.5376 70 89.5C70 86.4624 67.5376 84 64.5 84C61.4624 84 59 86.4624 59 89.5C59 92.5376 61.4624 95 64.5 95Z" fill="#C7CFD6"/>
  <path opacity="0.2" d="M110 62C112.761 62 115 59.7614 115 57C115 54.2386 112.761 52 110 52C107.239 52 105 54.2386 105 57C105 59.7614 107.239 62 110 62Z" fill="#C7CFD6"/>
  <path opacity="0.3" d="M131.5 171C135.642 171 139 167.642 139 163.5C139 159.358 135.642 156 131.5 156C127.358 156 124 159.358 124 163.5C124 167.642 127.358 171 131.5 171Z" fill="#C7CFD6"/>
  <path opacity="0.15" d="M168.5 142C173.747 142 178 137.747 178 132.5C178 127.253 173.747 123 168.5 123C163.253 123 159 127.253 159 132.5C159 137.747 163.253 142 168.5 142Z" fill="#C7CFD6"/>
  <path d="M158.5 73.5C158.5 77.9183 154.918 81.5 150.5 81.5C146.082 81.5 142.5 77.9183 142.5 73.5C142.5 69.0817 146.082 65.5 150.5 65.5C154.918 65.5 158.5 69.0817 158.5 73.5Z" stroke="#C7CFD6" stroke-opacity="0.5"/>
  <path d="M107.5 99.5C107.5 102.261 105.261 104.5 102.5 104.5C99.7386 104.5 97.5 102.261 97.5 99.5C97.5 96.7386 99.7386 94.5 102.5 94.5C105.261 94.5 107.5 96.7386 107.5 99.5Z" stroke="#C7CFD6" stroke-opacity="0.5"/>
</svg>
