<svg width="24" height="24" viewBox="0 0 24 24" fill="none" xmlns="http://www.w3.org/2000/svg">
  <path fill-rule="evenodd" clip-rule="evenodd" d="M4 12C4 7.58172 7.58172 4 12 4C16.4183 4 20 7.58172 20 12C20 16.4183 16.4183 20 12 20C7.58172 20 4 16.4183 4 12ZM2 12C2 6.47715 6.47715 2 12 2C17.5228 2 22 6.47715 22 12C22 17.5228 17.5228 22 12 22C6.47715 22 2 17.5228 2 12ZM11.1734 8.56546C11.0999 8.45669 11.0497 8.33391 11.0257 8.20479C10.9642 7.93962 11.0151 7.67476 11.1575 7.46039C11.463 6.99144 12.0831 6.85871 12.5409 7.16469C13.0087 7.47067 13.1408 8.09261 12.8359 8.55129C12.6528 8.83701 12.3274 8.99998 12.0016 8.99998C11.8066 9.00118 11.6155 8.94447 11.4524 8.83701C11.3418 8.76668 11.2468 8.67424 11.1734 8.56546Z" fill="#999999"/>
  <path d="M13 17C13 17.5523 12.5523 18 12 18C11.4477 18 11 17.5523 11 17V12C11 11.4477 11.4477 11 12 11C12.5523 11 13 11.4477 13 12V17Z" fill="#999999"/>
</svg>
