<svg width="48" height="48" viewBox="0 0 48 48" fill="none" xmlns="http://www.w3.org/2000/svg">
<path d="M48 24C48 37.2547 37.2552 48 24 48C10.745 48 0 37.2547 0 24C0 10.7448 10.745 0 24 0C37.2552 0 48 10.7448 48 24Z" fill="#171A1D"/>
<path d="M24.1179 40.1974L28.1017 36.1302L18.0706 26.1277L14.0868 30.0997L24.1179 40.1974ZM30.1663 34.168L34.1501 30.0997L18.0706 14.0689L14.0868 18.041L30.1663 34.1668V34.168ZM12.0233 28.1375L16.0072 24.0703L12.0233 20.0983L8.03949 24.0703L12.0233 28.1375ZM36.2135 28.1375L40.1974 24.0703L24.119 8.03951L20.1352 12.0116L36.2135 28.1375Z" fill="#F0B90B"/>
</svg>
