<svg width="48" height="48" viewBox="0 0 48 48" fill="none" xmlns="http://www.w3.org/2000/svg">
<path d="M48 24C48 37.2547 37.2552 48 24 48C10.745 48 0 37.2547 0 24C0 10.7448 10.745 0 24 0C37.2552 0 48 10.7448 48 24Z" fill="#383342"/>
<path d="M28.2439 15.6938C28.2439 10.2388 25.5899 5.54618 23.5723 4.01827C23.5627 4.01507 23.4188 3.93178 23.4316 4.1496C23.4316 4.1528 23.4284 4.1528 23.4284 4.15601C23.2621 14.6912 17.8902 17.5453 14.9357 21.3923C8.11857 30.2683 14.4593 39.9995 20.9151 41.7964C24.5283 42.8022 20.0806 40.0156 19.5082 34.128C18.8143 27.0138 28.2439 21.5845 28.2439 15.6938Z" fill="white"/>
<path d="M31.3792 19.2809C31.3376 19.252 31.2801 19.2329 31.2384 19.3001C31.1265 20.6263 29.774 23.4642 28.0601 26.0683C22.247 34.9027 25.5596 39.163 27.4239 41.45C28.5046 42.7794 27.4239 41.45 30.1257 40.092C30.3368 39.9862 35.4017 37.1418 35.9485 30.6617C36.4824 24.3867 32.719 20.4309 31.3792 19.2809Z" fill="#2BA9DF"/>
</svg>
