<svg width="49" height="49" viewBox="0 0 49 49" fill="none" xmlns="http://www.w3.org/2000/svg">
<g clip-path="url(#clip0)">
<path d="M24.1184 0C10.9337 0 0 10.9337 0 24.1184C0 37.3031 10.9337 48.2368 24.1184 48.2368C37.3031 48.2368 48.2368 37.3031 48.2368 24.1184C48.2368 10.9337 37.3031 0 24.1184 0Z" fill="#D8D8D8"/>
<path d="M24.1184 4.18047V18.9731L36.3384 24.4399L24.1184 4.18047Z" fill="#333333"/>
<path d="M24.1186 4.18047V18.9731L11.8986 24.4399L24.1186 4.18047Z" fill="#8C8C8C"/>
<path d="M24.1186 18.9731L36.3386 24.44L24.1186 31.8363L11.8986 24.44L24.1186 18.9731Z" fill="#383838"/>
<path d="M24.1187 18.9731L36.3387 24.44L24.1187 31.8363V18.9731Z" fill="#141414"/>
<path d="M11.8986 26.3694L24.1186 44.3778V33.7657L11.8986 26.3694Z" fill="#8C8C8C"/>
<path d="M36.3384 26.3694L24.1184 44.3778V33.7657L36.3384 26.3694Z" fill="#333333"/>
</g>
<defs>
<clipPath id="clip0">
<rect width="48.2368" height="48.2368" fill="white"/>
</clipPath>
</defs>
</svg>
