<svg width="48" height="48" viewBox="0 0 48 48" fill="none" xmlns="http://www.w3.org/2000/svg">
<path d="M24 0C37.3029 0 48 10.6971 48 24C48 37.3029 37.3029 48 24 48C10.6971 48 0 37.3029 0 24C0 10.6971 10.6971 0 24 0Z" fill="#363647"/>
<path fill-rule="evenodd" clip-rule="evenodd" d="M14.2628 17.8286C14.5371 17.8286 15.7714 19.7486 16.8685 20.9829C17.5542 21.6686 18.3771 22.2171 19.3371 22.4914C20.2971 22.7657 21.3942 22.7657 22.3542 22.3543C23.5885 21.5314 24.8228 20.5714 25.7828 19.4743C27.1542 18.1029 27.9771 17.9657 28.7999 17.9657C29.6228 17.9657 31.1314 20.4343 32.6399 23.4514C33.7371 25.3714 34.2857 27.4286 34.2857 29.6229C34.1485 30.4457 33.4628 30.4457 33.3257 30.0343C33.1885 29.6229 29.8971 25.5086 28.3885 25.3714C26.8799 25.2343 25.7828 26.0572 24.1371 27.5657C21.12 30.3086 19.6114 31.5429 17.9657 29.3486C16.1828 26.7429 14.8114 23.7257 13.9885 20.7086C13.3028 18.1029 13.9885 17.8286 14.2628 17.8286Z" fill="url(#paint0_linear)"/>
<defs>
<linearGradient id="paint0_linear" x1="23.9962" y1="17.8555" x2="23.9962" y2="30.4898" gradientUnits="userSpaceOnUse">
<stop stop-color="#FFCD29"/>
<stop offset="1" stop-color="#EC7F11"/>
</linearGradient>
</defs>
</svg>
