<svg width="49" height="49" viewBox="0 0 49 49" fill="none" xmlns="http://www.w3.org/2000/svg">
<path d="M24.0015 0C28.7485 0 33.389 1.40766 37.336 4.04498C41.283 6.6823 44.3594 10.4308 46.176 14.8165C47.9926 19.2022 48.4679 24.0281 47.5418 28.684C46.6157 33.3398 44.3298 37.6165 40.9731 40.9731C37.6165 44.3298 33.3398 46.6157 28.684 47.5418C24.0281 48.4679 19.2022 47.9926 14.8165 46.176C10.4308 44.3594 6.6823 41.283 4.04498 37.336C1.40766 33.389 0 28.7485 0 24.0015C0 17.6359 2.52872 11.531 7.02988 7.02988C11.531 2.52872 17.6359 0 24.0015 0V0Z" fill="#1A1A1A"/>
<path fill-rule="evenodd" clip-rule="evenodd" d="M23.3752 5.68311L37.9195 14.2994L35.8808 17.7408L23.3492 10.3169L12.0131 16.8618L12.1639 30.3016L23.7277 37.1521L36.0768 30.0224L38.0768 33.4865L23.7017 41.7859L8.18939 32.5963L7.98706 14.5674L23.3752 5.68311Z" fill="#4AD3B9"/>
<path fill-rule="evenodd" clip-rule="evenodd" d="M24.2366 15.6831L30.5352 19.4145L28.4965 22.8559L24.2106 20.3169L21.0131 22.163L21.0563 26.0193L24.3744 27.985L28.5849 25.554L30.5849 29.0181L24.3484 32.6188L17.0818 28.314L16.9871 19.8686L24.2366 15.6831Z" fill="#4AD3B9"/>
</svg>
