<svg width="48" height="48" viewBox="0 0 48 48" fill="none" xmlns="http://www.w3.org/2000/svg">
<path d="M24 0C37.2561 0 48 10.7461 48 24C48 37.2561 37.2561 48 24 48C10.7461 48 0 37.255 0 24C0 10.7461 10.7461 0 24 0Z" fill="#F5AC37"/>
<path d="M24.8839 25.6947H34.0035C34.1979 25.6947 34.2897 25.6947 34.3038 25.4399C34.3783 24.5121 34.3783 23.579 34.3038 22.6502C34.3038 22.4698 34.2141 22.3953 34.0186 22.3953H15.8691C15.6444 22.3953 15.5839 22.4698 15.5839 22.6804V25.3502C15.5839 25.6947 15.5839 25.6947 15.9436 25.6947H24.8839ZM33.2853 19.2752C33.3112 19.2071 33.3112 19.1326 33.2853 19.0656C33.133 18.7341 32.9527 18.4176 32.7431 18.1206C32.4278 17.613 32.0563 17.1454 31.6329 16.7252C31.4331 16.4714 31.202 16.2436 30.9428 16.0502C29.6446 14.9454 28.1013 14.1635 26.4424 13.7703C25.6054 13.5824 24.75 13.4928 23.8925 13.5003H15.8377C15.6131 13.5003 15.5829 13.59 15.5829 13.7855V19.1099C15.5829 19.3346 15.5829 19.395 15.868 19.395H33.1773C33.1773 19.395 33.3274 19.3648 33.3577 19.2752H33.2842H33.2853ZM33.2853 28.8149C33.0304 28.7868 32.7734 28.7868 32.5185 28.8149H15.8842C15.6595 28.8149 15.5839 28.8149 15.5839 29.1151V34.3208C15.5839 34.5605 15.5839 34.621 15.8842 34.621H23.5641C23.9313 34.6491 24.2985 34.6232 24.6582 34.5465C25.7728 34.4666 26.869 34.2247 27.9144 33.8261C28.2946 33.6944 28.6618 33.5227 29.0085 33.3164H29.1132C30.9136 32.38 32.3759 30.909 33.2983 29.1033C33.2983 29.1033 33.403 28.8764 33.2853 28.817V28.8149ZM12.5696 37.32V37.2303V33.7354V32.5506V29.0255C12.5696 28.83 12.5696 28.8008 12.3299 28.8008H9.07471C8.89435 28.8008 8.81982 28.8008 8.81982 28.5611V25.7109H12.2996C12.494 25.7109 12.5696 25.7109 12.5696 25.4561V22.6361C12.5696 22.4558 12.5696 22.4115 12.3299 22.4115H9.07471C8.89435 22.4115 8.81982 22.4115 8.81982 22.1717V19.5322C8.81982 19.367 8.81982 19.3227 9.05959 19.3227H12.2845C12.5091 19.3227 12.5696 19.3227 12.5696 19.0375V10.9526C12.5696 10.7128 12.5696 10.6523 12.8699 10.6523H24.1193C24.9357 10.6847 25.7468 10.7744 26.5493 10.9223C28.2028 11.228 29.7915 11.8188 31.2441 12.6622C32.2075 13.2292 33.0941 13.914 33.8836 14.7024C34.4776 15.3191 35.0133 15.9865 35.4885 16.6972C35.9605 17.4175 36.3525 18.1876 36.6603 18.9922C36.6981 19.2017 36.899 19.3432 37.1085 19.3076H39.7935C40.138 19.3076 40.138 19.3076 40.1531 19.638V22.0983C40.1531 22.3381 40.0635 22.3985 39.8226 22.3985H37.7522C37.5427 22.3985 37.4822 22.3985 37.4974 22.6685C37.5794 23.5822 37.5794 24.4992 37.4974 25.4129C37.4974 25.6677 37.4974 25.698 37.7836 25.698H40.152C40.2568 25.833 40.152 25.968 40.152 26.1041C40.1671 26.2779 40.1671 26.454 40.152 26.6279V28.4434C40.152 28.6982 40.0775 28.7738 39.8518 28.7738H37.0168C36.8191 28.736 36.6269 28.8624 36.5815 29.059C35.9065 30.814 34.8265 32.3876 33.4311 33.649C32.9213 34.108 32.3857 34.54 31.8262 34.9385C31.2257 35.2842 30.6414 35.6438 30.0258 35.9289C28.8929 36.4387 27.7049 36.8145 26.4856 37.0532C25.3278 37.2606 24.1538 37.3545 22.9755 37.3383H12.5653V37.3232L12.5696 37.32Z" fill="#FEFEFD"/>
</svg>
