<svg width="48" height="48" viewBox="0 0 48 48" fill="none" xmlns="http://www.w3.org/2000/svg">
<circle cx="24" cy="24" r="24" fill="white"/>
<path fill-rule="evenodd" clip-rule="evenodd" d="M25.0376 8.81889C24.4287 8.31037 23.5432 8.31037 22.9343 8.81889C18.8017 12.2703 14.0893 12.244 12.2542 12.2338C12.1629 12.2333 12.0788 12.2328 12.0022 12.2328C11.5628 12.2328 11.1417 12.409 10.8334 12.7221C10.525 13.0351 10.3551 13.4588 10.3618 13.8982C10.4487 19.6624 10.6798 23.7819 11.1342 26.8043C11.5884 29.8246 12.2866 31.9092 13.4205 33.4852C14.563 35.073 16.0307 35.9722 17.5752 36.8258C17.8435 36.9741 18.1168 37.1223 18.3962 37.2739C19.7501 38.0083 21.2489 38.8214 23.0297 40.0987C23.6013 40.5088 24.3706 40.5088 24.9422 40.0987C26.7212 38.8226 28.2181 38.0099 29.5699 37.276C29.8507 37.1236 30.1252 36.9746 30.3947 36.8255C31.9381 35.9716 33.4038 35.0721 34.5441 33.4838C35.6756 31.9077 36.3714 29.8232 36.8238 26.8034C37.2766 23.7815 37.5066 19.6622 37.5936 13.8982C37.6002 13.4588 37.4303 13.0351 37.1219 12.7221C36.8136 12.409 36.3925 12.2328 35.9531 12.2328C35.8774 12.2328 35.7941 12.2333 35.7036 12.2338C33.8835 12.244 29.1705 12.2705 25.0376 8.81889ZM34.2827 15.5008C34.179 20.3548 33.956 23.7999 33.5788 26.3172C33.1598 29.1135 32.5715 30.6049 31.8786 31.5702C31.1944 32.5232 30.2955 33.1304 28.8063 33.9543C28.5643 34.0882 28.3088 34.2267 28.0402 34.3724C26.908 34.9863 25.5438 35.7261 23.9859 36.7696C22.4259 35.7247 21.0595 34.9844 19.9254 34.37C19.658 34.2251 19.4035 34.0872 19.1624 33.954C17.6712 33.1299 16.7701 32.5223 16.084 31.5688C15.3894 30.6034 14.7994 29.1121 14.379 26.3164C14.0005 23.7994 13.7766 20.3547 13.6726 15.5011C16.0446 15.4138 20.1252 14.9022 23.9859 12.1497C27.8419 14.8988 31.9165 15.4125 34.2827 15.5008Z" fill="#3375BB"/>
</svg>
