<svg width="48" height="48" viewBox="0 0 48 48" fill="none" xmlns="http://www.w3.org/2000/svg">
<path d="M24 0C37.2528 0 48 10.7472 48 24C48 37.2552 37.2528 48 24 48C10.7448 48 0 37.2552 0 24C0 10.7472 10.7448 0 24 0Z" fill="#4FA68D"/>
<path d="M26.8488 24.9024V24.9C26.6856 24.9096 25.8648 24.9552 24.0336 24.9552C22.5672 24.9552 21.5376 24.9168 21.1728 24.9V24.9024C15.54 24.672 11.3328 23.7576 11.3328 22.6656C11.3328 21.5736 15.54 20.6616 21.1728 20.4288V23.9952C21.5424 24.0192 22.5984 24.0744 24.0552 24.0744C25.8072 24.0744 26.6832 24.0072 26.8488 23.9952V20.4312C32.472 20.6616 36.6672 21.576 36.6672 22.6656C36.6672 23.7576 32.472 24.6696 26.8488 24.9024ZM26.8488 16.8672H34.6944V12H13.3272V16.8672H21.1752V20.0592C14.796 20.3304 10.0008 21.5064 10.0008 22.9152C10.0008 24.324 14.796 25.4976 21.1728 25.7712V36H26.8488V25.7688C33.2136 25.4952 37.9992 24.3216 37.9992 22.9128C37.9992 21.5064 33.2136 20.3328 26.8488 20.0592V16.8672Z" fill="white"/>
</svg>
