<svg width="48" height="48" viewBox="0 0 48 48" fill="none" xmlns="http://www.w3.org/2000/svg">
<circle cx="24" cy="24" r="24" fill="white"/>
<path d="M14.5874 10.6854L39.3874 27.6188L33.2541 36.6854L8.4541 19.6188L14.5874 10.6854Z" fill="url(#paint0_linear)"/>
<path d="M39.3875 27.6188C37.2541 30.6854 30.0541 29.4854 23.2541 24.6854C16.3208 20.0188 12.5875 13.7521 14.5875 10.6854C16.7208 7.61878 23.9208 8.81878 30.7208 13.6188C37.6541 18.1521 41.3875 24.5521 39.3875 27.6188Z" fill="url(#paint1_linear)"/>
<path d="M33.2541 36.5521C31.1207 39.6188 23.9207 38.4188 17.1207 33.6188C10.3207 28.8188 6.45408 22.6854 8.58741 19.4854C10.7207 16.4188 17.9207 17.6188 24.7207 22.4188C31.5207 27.2188 35.2541 33.4854 33.2541 36.5521Z" fill="url(#paint2_linear)"/>
<path d="M39.3875 27.6188L33.2541 36.6854C31.1208 39.7521 23.9208 38.4188 17.1208 33.7521C15.7875 32.8188 14.5875 31.8854 13.3875 30.8188C14.3208 30.6854 15.5208 30.1521 16.7208 28.8188C18.8541 26.5521 19.9208 26.0188 20.8541 26.1521C21.7875 26.1521 22.8541 27.0854 24.5875 29.3521C26.3208 31.6188 28.7208 32.2854 30.1875 31.0854C30.3208 30.9521 30.4541 30.9521 30.5875 30.8188C31.7875 29.8854 32.1875 29.4854 34.4541 25.2188C34.9875 24.1521 36.8541 22.4188 39.3875 23.2188C40.0541 24.9521 40.0541 26.4188 39.3875 27.6188Z" fill="#0E0F23"/>
<path fill-rule="evenodd" clip-rule="evenodd" d="M38.4541 27.0855C36.5874 29.7521 30.0541 28.4188 23.7874 24.0188C17.3874 19.6188 13.6541 14.0188 15.5208 11.3521C17.3874 8.68546 23.9208 10.0188 30.1874 14.4188C36.4541 18.8188 40.1874 24.4188 38.4541 27.0855ZM32.5874 23.0855C31.6541 24.4188 28.4541 23.7521 25.2541 21.6188C22.1874 19.4855 20.3208 16.6855 21.2541 15.3521C22.1874 14.0188 25.3874 14.6855 28.5874 16.8188C31.6541 18.9521 33.5208 21.7521 32.5874 23.0855Z" fill="white"/>
<path d="M14.0541 13.7521C14.0541 13.6188 13.9208 13.4854 13.7874 13.6188C13.6541 13.7521 13.5208 13.7521 13.5208 13.8854C13.6541 14.2854 13.7874 14.5521 13.7874 14.8188C13.7874 14.9521 13.9208 15.0854 14.0541 14.9521C14.1874 14.9521 14.3208 14.8188 14.1874 14.6854C14.1874 14.4188 14.1874 14.1521 14.0541 13.7521Z" fill="white"/>
<path d="M14.7208 15.8855C14.7208 15.7521 14.5875 15.6188 14.4541 15.7521C14.3208 15.8855 14.3208 15.8855 14.3208 16.0188C15.7875 19.3521 18.8541 22.9521 22.8541 25.6188C22.9875 25.7521 23.1208 25.6188 23.2541 25.6188C23.3875 25.4855 23.2541 25.3521 23.2541 25.2188C19.1208 22.5521 16.1875 19.0855 14.7208 15.8855Z" fill="white"/>
<path d="M30.8541 28.9521C30.7207 28.9521 30.5874 28.9521 30.5874 29.0855C30.5874 29.2188 30.5874 29.3521 30.7207 29.3521C31.1207 29.4854 31.6541 29.6188 32.0541 29.7521C32.1874 29.7521 32.3207 29.7521 32.3207 29.6188C32.3207 29.4855 32.3207 29.3521 32.1874 29.3521C31.7874 29.2188 31.2541 29.0855 30.8541 28.9521Z" fill="white"/>
<path d="M33.2541 29.4855C33.1208 29.4855 32.9874 29.6188 32.9874 29.7521C32.9874 29.8855 33.1208 30.0188 33.2541 30.0188C34.3208 30.1521 35.5208 30.2855 36.4541 30.1521C36.5874 30.1521 36.7208 30.0188 36.7208 29.8855C36.7208 29.7521 36.5874 29.6188 36.4541 29.6188C35.3874 29.7521 34.3208 29.6188 33.2541 29.4855Z" fill="white"/>
<defs>
<linearGradient id="paint0_linear" x1="19.4464" y1="8.27784" x2="24.3645" y2="25.1661" gradientUnits="userSpaceOnUse">
<stop stop-color="#03B8FF"/>
<stop offset="1" stop-color="#FA52A0"/>
</linearGradient>
<linearGradient id="paint1_linear" x1="23.4965" y1="7.09825" x2="28.4148" y2="23.9866" gradientUnits="userSpaceOnUse">
<stop stop-color="#03B8FF"/>
<stop offset="1" stop-color="#FA52A0"/>
</linearGradient>
<linearGradient id="paint2_linear" x1="15.4087" y1="9.45357" x2="20.327" y2="26.342" gradientUnits="userSpaceOnUse">
<stop stop-color="#03B8FF"/>
<stop offset="1" stop-color="#FA52A0"/>
</linearGradient>
</defs>
</svg>
