<svg width="48" height="48" viewBox="0 0 48 48" fill="none" xmlns="http://www.w3.org/2000/svg">
<path d="M24 48C37.2552 48 48 37.2552 48 24C48 10.7448 37.2552 0 24 0C10.7448 0 0 10.7448 0 24C0 37.2552 10.7448 48 24 48Z" fill="#070A0E"/>
<path fill-rule="evenodd" clip-rule="evenodd" d="M13.8648 32.0471C13.1472 31.6079 12.708 30.8279 12.708 29.9879V25.2983C12.708 24.7415 13.1616 24.2903 13.7184 24.2927C13.896 24.2927 14.0712 24.3407 14.2248 24.4295L24.8064 30.5999C25.4256 30.9599 25.8072 31.6223 25.8072 32.3399V37.1975C25.8096 37.8647 25.2696 38.4071 24.6024 38.4071C24.3792 38.4071 24.1584 38.3447 23.9688 38.2295L13.8648 32.0471ZM29.6376 23.1455C30.2568 23.5055 30.636 24.1703 30.6384 24.8855V34.7447C30.6384 35.0351 30.4824 35.3039 30.228 35.4455L27.912 36.7487C27.8832 36.7655 27.852 36.7775 27.8184 36.7871V31.3127C27.8184 30.6047 27.4464 29.9471 26.8368 29.5823L17.544 24.0239V17.8439C17.544 17.2871 17.9976 16.8359 18.5544 16.8383C18.732 16.8383 18.9072 16.8863 19.0608 16.9751L29.6376 23.1455ZM34.2696 15.8639C34.8912 16.2239 35.2728 16.8887 35.2728 17.6063V32.0063C35.2704 32.3015 35.1072 32.5727 34.848 32.7143L32.652 33.8999V23.8751C32.652 23.1671 32.28 22.5119 31.6752 22.1471L22.176 16.4495V10.5887C22.176 10.4111 22.224 10.2359 22.3104 10.0823C22.5912 9.60227 23.208 9.43907 23.688 9.71747L34.2696 15.8639Z" fill="#00D395"/>
</svg>
