<svg width="48" height="48" viewBox="0 0 48 48" fill="none" xmlns="http://www.w3.org/2000/svg">
<path d="M48 24C48 37.2547 37.2552 48 24 48C10.745 48 0 37.2547 0 24C0 10.7448 10.745 0 24 0C37.2552 0 48 10.7448 48 24Z" fill="#FFE2EE"/>
<path d="M24.0275 22.2488C24.7113 23.5171 23.1461 23.9125 22.3635 24.0114C21.194 24.1102 20.9963 23.4265 21.194 22.6439C21.2928 22.3476 21.3917 22.0593 21.68 21.8616C21.8777 21.6639 22.1658 21.565 22.4623 21.4744C22.7589 21.4744 23.0475 21.4744 23.3438 21.672C23.6321 21.7627 23.8298 21.9604 24.0275 22.2488ZM28.426 19.901C27.6436 26.2518 38.879 24.9832 38.6894 30.0657C39.7686 28.5993 40.2543 24.6869 37.0254 22.6357C34.093 20.8813 30.2795 21.8616 28.426 19.901ZM34.8759 17.4629C34.7768 17.364 34.6782 17.364 34.6782 17.2652C34.7768 17.364 34.8759 17.364 34.8759 17.4629Z" fill="#E62274"/>
<path d="M37.5115 22.1499C37.4126 21.9522 37.3138 21.7624 37.1242 21.5648C36.7373 21.079 36.2431 20.6836 35.5593 20.4859C35.1721 20.3871 34.7768 20.2882 34.2907 20.2882H33.1212C32.2398 20.1894 31.3583 20.1894 30.4853 19.901C30.2876 19.8022 29.9993 19.8022 29.8016 19.7033C29.7027 19.7033 29.6039 19.6045 29.5051 19.6045C29.4062 19.6045 29.3074 19.5056 29.2085 19.4068C28.8213 19.2091 28.4259 18.9207 28.039 18.5254C27.3553 17.8419 26.8692 17.1581 26.2761 16.4747C25.7901 15.7909 25.197 15.1072 24.6124 14.4234C24.0272 13.8385 23.3438 13.2536 22.66 12.8583C21.8777 12.4713 20.9963 12.2736 20.2139 12.1748C21.0951 12.0759 21.9765 12.1748 22.8498 12.4713C23.731 12.7679 24.5135 13.3525 25.197 13.9374C25.5845 14.3246 26.0784 14.8188 26.3668 15.206C29.2003 14.6211 31.449 15.1072 33.2034 16.0875C33.7886 16.3837 34.2825 16.7709 34.7686 17.1663C34.8674 17.2651 34.9663 17.2651 34.9663 17.364L36.0454 18.4431C37.0254 19.901 37.5115 21.2767 37.5115 22.1499ZM20.2137 12.9653C20.8974 13.0641 21.68 13.3522 22.1658 13.9453C22.6518 14.5305 22.8495 15.2139 22.9486 15.8977C23.0472 16.3837 23.1463 16.9768 23.3356 17.4626C23.4344 17.6603 23.6321 17.9486 23.7228 18.1463C23.8216 18.344 24.0193 18.5335 24.1097 18.7312V18.9289C23.8132 19.2254 23.2286 18.9289 22.9402 18.7312C22.4542 18.5335 22.0588 18.2452 21.7704 17.8498C20.7904 16.68 20.2055 15.1151 20.2055 13.5499C20.2137 13.3607 20.2137 13.163 20.2137 12.9653ZM32.2316 25.8644C30.6664 30.1642 37.701 33.0966 35.0651 37.5939C37.7998 36.5148 39.0682 33.0966 37.8987 30.3619C36.9266 28.0144 34.093 27.133 32.2316 25.8644Z" fill="#E62274"/>
<path d="M22.9484 31.5317C23.3688 31.2134 23.8284 30.9503 24.3159 30.7491C24.8017 30.5514 25.2959 30.3622 25.8808 30.2633C26.9599 30.0656 27.9317 29.9668 28.8132 29.6784C29.2004 29.4807 29.5957 29.2912 29.983 28.9947C30.2795 28.6982 30.5676 28.311 30.7653 27.9156C30.963 27.4298 30.963 27.0344 30.963 26.5484C30.963 26.0623 30.7653 25.5681 30.6664 25.082C31.0539 25.4695 31.3502 25.9635 31.4493 26.5484C31.647 27.1333 31.647 27.6275 31.4493 28.2124C31.3502 28.797 31.0618 29.2912 30.5676 29.7773C30.1806 30.1645 29.6864 30.461 29.1015 30.6587C28.6155 30.8564 28.0224 30.9552 27.4375 30.9552C26.9517 30.9552 26.3587 31.0541 25.8726 31.0541C24.9005 30.9471 23.9287 31.1448 22.9484 31.5317ZM32.8165 39.1593C32.6188 39.2582 32.52 39.4559 32.3304 39.5465C32.1327 39.6454 31.9432 39.7442 31.7455 39.8431C31.3583 40.0408 30.963 40.1396 30.4772 40.1396C29.3074 40.1396 28.426 39.2582 27.9402 38.2861C27.6436 37.6023 27.355 36.9189 26.9596 36.2351C26.375 35.3537 25.3947 34.5711 24.3238 34.6699C23.838 34.7688 23.4426 34.9665 23.1542 35.3537C22.4708 36.4328 23.4508 37.8907 24.7194 37.7012C24.8183 37.7012 24.9171 37.7012 25.0159 37.6023C25.1148 37.6023 25.2136 37.5035 25.3125 37.4046C25.5102 37.3058 25.609 37.1081 25.6997 36.82C25.7985 36.6223 25.7985 36.334 25.7985 36.1363C25.6997 35.9386 25.6008 35.6502 25.4111 35.5514C25.6088 35.6502 25.7985 35.8479 25.8974 36.1363C25.9962 36.4328 25.9962 36.6223 25.9962 36.9189C25.9962 37.2154 25.7985 37.4049 25.6088 37.7014L25.3125 37.998C25.2136 38.0968 25.016 38.0968 24.9253 38.1957C24.6287 38.2945 24.3404 38.2945 24.0438 38.2945C23.6569 38.1957 23.2615 38.0968 22.965 37.8085C22.5775 37.5119 22.2813 37.1247 21.9845 36.7293C21.5975 36.3421 21.1033 35.9468 20.6172 35.7491C20.2303 35.5514 19.9338 35.4525 19.5384 35.3619C19.3407 35.3619 19.1509 35.263 18.9532 35.263C18.8546 35.263 18.4674 35.1642 18.3686 35.1642C18.9535 34.5795 19.6372 34.0853 20.3207 33.6981C21.0044 33.3109 21.787 32.9155 22.5696 32.7178C23.4508 32.5201 24.2334 32.4213 25.1066 32.5201C25.5924 32.619 25.9878 32.7178 26.375 32.8167C26.7622 33.0144 27.1576 33.2039 27.5448 33.5004C27.9317 33.797 28.1294 34.1842 28.3271 34.6702C28.5248 35.0572 28.6236 35.4525 28.7146 35.9386C29.0108 37.2072 28.9123 39.2582 30.5676 39.5547H31.1606C31.3583 39.5547 31.5481 39.5547 31.7458 39.4559C32.1327 39.4477 32.5281 39.3488 32.8165 39.1593ZM21.4823 19.5141C21.3835 19.7118 21.2846 19.9998 21.1858 20.1975C20.8893 20.5847 20.5021 20.7824 20.1067 20.9801C19.8101 21.1778 19.4229 21.2767 19.0276 21.2767H18.731C18.4345 21.2767 18.245 21.3755 18.0473 21.5732C17.8496 21.7709 17.6603 21.9604 17.6603 22.1581C17.6603 22.2569 17.5615 22.4546 17.5615 22.5453C17.5615 22.8416 17.5615 23.2288 17.4626 23.6241C17.3638 24.3079 17.1661 24.9916 16.8775 25.6751C16.4905 26.5565 15.9963 27.2403 16.0952 28.2124C16.194 28.797 16.4824 29.2912 16.8778 29.6784C17.6603 30.461 19.4148 30.8482 19.0276 32.8085C18.8299 33.9783 16.8778 35.2548 14.1431 35.642C14.4396 35.642 13.7559 34.5629 13.7559 34.4723C13.4593 33.9865 13.171 33.5911 12.8744 33.105C12.3886 32.1248 12.1909 31.0541 12.3886 29.975C12.5863 28.8958 13.3686 28.0229 14.0524 27.1414C14.835 26.1612 15.7164 24.7939 15.9057 23.5253C15.9057 23.2288 16.0045 22.8416 16.0045 22.4462C16.1033 22.0592 16.2022 21.565 16.392 21.1778C16.4905 20.8813 16.6882 20.6918 16.8778 20.4941C16.9766 20.3952 17.0754 20.1975 17.0754 20.1069C17.0754 19.9092 17.0754 19.8106 16.9766 19.6211L12.6852 11.7955L18.9369 19.5138C19.0357 19.6124 19.1346 19.7115 19.2334 19.7115C19.3323 19.8101 19.4311 19.8101 19.5299 19.8101C19.6288 19.8101 19.7276 19.8101 19.8265 19.7115C19.9253 19.7115 20.0242 19.6124 20.123 19.5138C20.2219 19.4147 20.2219 19.3161 20.2219 19.217C20.2219 19.1184 20.2219 19.0193 20.123 18.9207C19.7361 18.4347 19.2419 17.8416 18.8546 17.3556L17.2895 15.4035L14.1594 11.4908L10.0493 6.02957L14.7359 11.112L18.0557 14.8267L19.7195 16.68C20.3044 17.2652 20.7986 17.9486 21.3835 18.5335L21.4823 18.6324V18.8301C21.5812 19.0277 21.5812 19.3161 21.4823 19.5138V19.5141Z" fill="#E62274"/>
<path d="M22.9484 37.693C22.6405 37.4839 22.3749 37.2184 22.1658 36.9104C22.3795 37.2148 22.6444 37.4796 22.9487 37.6933L22.9484 37.693Z" fill="#E62274"/>
</svg>
