<svg width="48" height="48" viewBox="0 0 48 48" fill="none" xmlns="http://www.w3.org/2000/svg">
<path d="M48 24C48 37.2547 37.2552 48 24 48C10.745 48 0 37.2547 0 24C0 10.7448 10.745 0 24 0C37.2552 0 48 10.7448 48 24Z" fill="#171A1D"/>
<path d="M38.587 12.7884L39.0634 13.3019L38.6469 13.865C25.1376 32.1306 17.3554 40.4007 14.0535 39.2915C12.0423 38.6159 10.0253 36.584 8.00835 33.6336C7.29938 32.5965 6.63364 31.5045 6.02815 30.4178C5.62494 29.6941 5.28367 29.0341 5.10647 28.6623C4.88043 28.1881 4.785 27.896 4.70929 27.5123C4.70467 27.4888 4.70467 27.4888 4.70028 27.4662C4.66868 27.3033 4.65775 27.2519 4.63413 27.1628C4.22763 25.6308 4.01971 24.0435 4.01971 22.4295C4.01971 12.2621 12.262 4.01976 22.4294 4.01976C25.6148 4.01976 28.6844 4.83043 31.4047 6.35221L31.475 6.39616C33.7022 7.94682 36.0713 10.0775 38.587 12.7884ZM30.5441 7.80611C28.0831 6.43736 25.3101 5.70873 22.4294 5.70873C13.1948 5.70873 5.70868 13.1949 5.70868 22.4295C5.70868 23.8969 5.89752 25.3386 6.26661 26.7297C6.3031 26.8672 6.31961 26.9449 6.35833 27.1445C6.36239 27.1654 6.36239 27.1654 6.3663 27.1853C6.41516 27.4329 6.46672 27.5907 6.63109 27.9356C6.79274 28.2747 7.11759 28.903 7.50356 29.5957C8.08551 30.6402 8.72503 31.6892 9.40264 32.6804C11.225 35.3461 13.0322 37.1668 14.5913 37.6905C16.6707 38.389 24.4988 30.1024 36.8699 13.4264C34.624 11.0557 32.5141 9.18225 30.5441 7.80611Z" fill="black"/>
<path d="M30.544 7.8061C28.083 6.43736 25.31 5.70872 22.4294 5.70872C13.1948 5.70872 5.70862 13.1949 5.70862 22.4295C5.70862 23.8969 5.89746 25.3386 6.26654 26.7297C6.30304 26.8672 6.31955 26.9449 6.35827 27.1445C6.36233 27.1654 6.36233 27.1654 6.36624 27.1853C6.4151 27.4329 6.46665 27.5907 6.63103 27.9356C6.79268 28.2747 7.11753 28.903 7.5035 29.5957C8.08545 30.6402 8.72497 31.6892 9.40258 32.6804C11.2249 35.3461 13.0322 37.1668 14.5913 37.6905C16.6707 38.389 24.4987 30.1024 36.8699 13.4264C34.6239 11.0557 32.514 9.18225 30.544 7.8061Z" fill="#EC1C79"/>
<path d="M25.8076 44.2172C15.6402 44.2172 7.39789 35.9748 7.39789 25.8074C7.39789 15.64 15.6402 7.39771 25.8076 7.39771C35.975 7.39771 44.2174 15.64 44.2174 25.8074C44.2174 35.9748 35.975 44.2172 25.8076 44.2172ZM25.8076 42.5282C35.0422 42.5282 42.5284 35.0421 42.5284 25.8074C42.5284 16.5728 35.0422 9.08667 25.8076 9.08667C16.573 9.08667 9.08685 16.5728 9.08685 25.8074C9.08685 35.0421 16.573 42.5282 25.8076 42.5282Z" fill="black"/>
<path d="M25.8071 42.5282C35.0417 42.5282 42.5278 35.0421 42.5278 25.8074C42.5278 16.5728 35.0417 9.08667 25.8071 9.08667C16.5724 9.08667 9.0863 16.5728 9.0863 25.8074C9.0863 35.0421 16.5724 42.5282 25.8071 42.5282Z" fill="white"/>
<path fill-rule="evenodd" clip-rule="evenodd" d="M13.2993 29.2326L11.0861 22.5646H13.0251L14.179 26.3951L15.4558 22.5457H17.0353L18.3122 26.3951L19.4661 22.5646H21.3672L19.154 29.2326H17.5555L16.2219 25.421L14.8978 29.2326H13.2993ZM22.0955 29.1853V22.5646H27.4205V24.1252H23.9115V25.1277H27.0894V26.5749H23.9115V27.6247H27.4677V29.1853H22.0955ZM30.0215 29.1853V24.1725H28.0352V22.5646H33.8426V24.1725H31.8564V29.1853H30.0215ZM34.6465 29.1853V22.5646H36.4814V25.0426H38.8365V22.5646H40.6714V29.1853H38.8365V26.6694H36.4814V29.1853H34.6465Z" fill="black"/>
<path d="M5.11686 20.573C4.64964 20.3394 4.46026 19.7713 4.69387 19.3041C4.92748 18.8369 5.49561 18.6475 5.96282 18.8811L8.66517 20.2323C9.13238 20.4659 9.32176 21.034 9.08815 21.5012C8.85455 21.9684 8.28642 22.1578 7.8192 21.9242L5.11686 20.573Z" fill="black"/>
<path d="M4.80539 25.0539C4.3311 24.835 4.12406 24.2731 4.34295 23.7988C4.56184 23.3245 5.12377 23.1175 5.59806 23.3363L8.30041 24.5835C8.7747 24.8024 8.98174 25.3643 8.76285 25.8386C8.54396 26.3129 7.98203 26.5199 7.50774 26.3011L4.80539 25.0539Z" fill="black"/>
</svg>
